<svg xmlns="http://www.w3.org/2000/svg" width="226" height="149.067" viewBox="0 0 226 149.067"><defs><style>.a{fill:#fff;}.b{fill:#fbbe00;}</style></defs><g transform="translate(-853 -58.467)"><g transform="translate(853 112.156)"><path class="a" d="M221.4,339.438q1.217,1.652,2.579,3.388t2.695,3.5q1.333,1.766,2.492,3.531a21.447,21.447,0,0,1,1.854,3.417H221.4a14.32,14.32,0,0,1-2.58-2.79q-1.13-1.594-2.144-3.3t-2.029-3.388a23.326,23.326,0,0,0-2.231-3.1,6.285,6.285,0,0,0-1.826-.171q-.84.058-1.681.171t-1.71.171a6.377,6.377,0,0,1-1.854-.171,21.07,21.07,0,0,0-.261,3.018q-.03,1.6.029,3.275t.145,3.275q.087,1.595.087,3.018a22.069,22.069,0,0,1-8.926,0V314.265q3.652-.17,7.535-.4t7.535-.2a50.99,50.99,0,0,1,6.955.513,19.721,19.721,0,0,1,5.853,1.737,10.445,10.445,0,0,1,6.086,9.056,19.045,19.045,0,0,1-.348,3.844,19.6,19.6,0,0,1-.9,3.1,18.434,18.434,0,0,1-1.246,2.62l-1.391,2.392a8.847,8.847,0,0,0-2.55,1.253A8.818,8.818,0,0,1,221.4,339.438Zm-19.822-23.294q-.291.457-.232.513t.173-.057a1.076,1.076,0,0,0,.2-.285c.058-.114.009-.171-.145-.171a.225.225,0,0,0-.2-.256,3.98,3.98,0,0,0-.521-.028,4.032,4.032,0,0,1-.667-.057,1.035,1.035,0,0,1-.58-.285,1,1,0,0,1,.174.626.344.344,0,0,1-.232.228c-.116.038-.242.076-.376.114a.264.264,0,0,0-.2.285.771.771,0,0,1,.232.94,2.173,2.173,0,0,0-.232.94,1,1,0,0,1,.551.085c.058.057.087.256.087.6a1.761,1.761,0,0,0-.406.057,1.889,1.889,0,0,0-.869.513q.985,0,1.536-.057a1.679,1.679,0,0,0,1.014-.512,1.666,1.666,0,0,1,.29.341.2.2,0,0,1-.029.228q-.087.114-.174.256a.705.705,0,0,0-.087.37c.309.191.492.228.551.114a.869.869,0,0,0,.087-.4.873.873,0,0,1,.087-.4c.058-.114.241-.094.551.057a3.454,3.454,0,0,0,.058.683q.115.627.58.626a.692.692,0,0,1,.116-.4l.232-.342a2.94,2.94,0,0,0,.232-.427,1.765,1.765,0,0,0,.116-.712q-.7.228-.9.114a.368.368,0,0,1-.174-.4,3.059,3.059,0,0,1,.2-.74,2.543,2.543,0,0,0,.174-.911,10.1,10.1,0,0,1-1.478-.086,1.832,1.832,0,0,1-1.014-.541.6.6,0,0,0,.609-.313C201.007,316.25,201.23,316.144,201.578,316.144Zm-1.971,8.2a1.283,1.283,0,0,0-.406-.883,1.192,1.192,0,0,0-.869-.427,1.243,1.243,0,0,0,.406.911A1.225,1.225,0,0,0,199.607,324.346Zm-1.275,2.506a2.194,2.194,0,0,1,.927.114.18.18,0,0,1,.058.285,1.814,1.814,0,0,1-.435.4,4.593,4.593,0,0,0-.551.456,2.15,2.15,0,0,1,1.043-.142.882.882,0,0,1,.463.313c.116.152.241.332.377.541a1.594,1.594,0,0,0,.666.541,2.624,2.624,0,0,1-.377-1.424q.087-.455,1.073-.456a1.6,1.6,0,0,1-.956-.37q-.493-.37-.927-.655a1.475,1.475,0,0,0-.782-.285Q198.564,326.168,198.332,326.852Zm3.825,6.265a2.144,2.144,0,0,0,.406,1.139q.405.628.927.114V333.8q0,.228.087.256a.132.132,0,0,0,.145-.028.129.129,0,0,0,.029-.143q-.03-.085-.261-.085a.972.972,0,0,0-.435-.826.641.641,0,0,0-.9.143,1.911,1.911,0,0,0-.666-.74,3.924,3.924,0,0,0-.985-.456q-.551-.17-1.13-.313a5.079,5.079,0,0,1-1.043-.37v1.31a.426.426,0,0,0,.464.142,1.958,1.958,0,0,0,.406-.2,1.036,1.036,0,0,1,.29-.143c.077-.018.116.048.116.2v.569h-.637q0,.513.232.655t-.232.6h1.913a1.744,1.744,0,0,0-.232-.826q-.232-.427.232-.427Zm-3.825,3.19h.637v-.627h-.637Zm0,3.132c0,.8.058,1.216.174,1.253s.212-.066.29-.313a1.725,1.725,0,0,0,.058-.768Q198.8,339.211,198.332,339.438Zm0,3.759q.231.456.348.341a.459.459,0,0,0,.116-.341.464.464,0,0,0-.116-.342Q198.563,342.742,198.332,343.2Zm.637,5.069h-.637v.57a1.446,1.446,0,0,0,.551-.057q.087-.056.087-.513a.833.833,0,0,0,.782.057.708.708,0,0,0,.319-.483.927.927,0,0,0-.087-.6.431.431,0,0,0-.377-.285,4.438,4.438,0,0,0-.55.683A1.544,1.544,0,0,0,198.969,348.266Zm.116,2.392a.375.375,0,0,0,.29,0,2.244,2.244,0,0,1,.406-.086.737.737,0,0,1,.522.2v1.253q.985,0,1.13-.4a2.5,2.5,0,0,0,.145-.854H200.3v-.683c-.194-.151-.3-.237-.319-.256s-.049-.009-.087.028a.969.969,0,0,1-.232.143,1.845,1.845,0,0,1-.7.085c0-.3-.029-.474-.087-.513a1.457,1.457,0,0,0-.551-.057.488.488,0,0,0,.29.513,1.117,1.117,0,0,0,.348.057C198.969,350.43,199.008,350.62,199.085,350.658Zm.521-13.156h-.637c-.154.341-.174.56-.058.654a.44.44,0,0,0,.406.086.64.64,0,0,0,.377-.256Q199.838,337.787,199.607,337.5Zm-.637-11.9q.231.228.348.086a.746.746,0,0,0,0-.8q-.117-.141-.348.086Zm1.913,10.707a.489.489,0,0,0-.463-.171,1.311,1.311,0,0,0-.464.228c-.155.114-.318.238-.492.37a.826.826,0,0,1-.493.2,3.011,3.011,0,0,1,.811.085,3.329,3.329,0,0,1,.522.2,3.17,3.17,0,0,0,.522.2,2.713,2.713,0,0,0,.754.086.531.531,0,0,1-.232-.541q.057-.312.116-.6a.8.8,0,0,0-.029-.484c-.058-.133-.242-.2-.551-.2Zm-.58,2.506h-.7a3.172,3.172,0,0,1,.29.74.914.914,0,0,1-.029.512q-.087.229-.174.513a2.609,2.609,0,0,0-.087.74h-.637V342a1,1,0,0,0,.551-.085c.058-.057.087-.257.087-.6a10.919,10.919,0,0,1,1.246.086q.724.085.725.6-.522.456-.464.826c.038.248.386.37,1.043.37a1.139,1.139,0,0,1-.173-.712,1.214,1.214,0,0,1,.173-.427,1.754,1.754,0,0,0,.174-.313q.058-.141-.174-.428a.715.715,0,0,0,.464-.2.852.852,0,0,0,.29-.427.5.5,0,0,0-.087-.428c-.1-.132-.319-.2-.667-.2v1.253a.938.938,0,0,1-.551-.541,2.334,2.334,0,0,1-.087-.626,1.3,1.3,0,0,0-.087-.512q-.087-.2-.551-.2c-.155,0-.2.066-.145.2s.125.276.2.427a1.435,1.435,0,0,1,.145.428c.019.134-.049.2-.2.2h-.58c-.194-.151-.271-.3-.232-.456a2.838,2.838,0,0,1,.173-.483q.116-.256.2-.484a.412.412,0,0,0-.145-.456,9.748,9.748,0,0,0,1.159-.086c.464-.057.7-.236.7-.541a3.31,3.31,0,0,1-.637-.086,3.678,3.678,0,0,0-.753-.085.947.947,0,0,0-.551.142Q200.012,338.3,200.3,338.812Zm-.7-17.6a.447.447,0,0,0,.406.512,6.2,6.2,0,0,0,.87.057v-.569a.581.581,0,0,0-.347.085,1.569,1.569,0,0,1-.232.143.47.47,0,0,1-.29.028.826.826,0,0,1-.406-.256c0-.342-.058-.531-.174-.57a.247.247,0,0,0-.29.085.309.309,0,0,0-.058.313Q199.142,321.214,199.607,321.213Zm0,1.823a6.057,6.057,0,0,0,.9-.057q.376-.056.377-.512h-1.275Zm1.275,2.563a.482.482,0,0,0-.377-.541,4.128,4.128,0,0,0-.9-.085.486.486,0,0,0,.406.541A4.219,4.219,0,0,0,200.882,325.6Zm-1.275,4.385a3.363,3.363,0,0,0,.841-.085q.318-.086-.145-.541h-.7Zm.7,13.84V343.2h-.7v.626Zm-.7,5.7a4.125,4.125,0,0,0,.9-.085q.376-.086.377-.6-.407.058-.638.114c-.193.077-.347.143-.464.2A.371.371,0,0,0,199.607,349.518Zm.7-1.253a1.472,1.472,0,0,0,1.42-.883,5.092,5.092,0,0,0,.435-2.25.685.685,0,0,0-.637.285,3.976,3.976,0,0,0-.29.569,1.352,1.352,0,0,1-.29.456c-.116.114-.329.095-.638-.057a1.6,1.6,0,0,1,.261-.683q.261-.455.493-.854a1.807,1.807,0,0,0,.261-.712c.019-.208-.126-.313-.435-.313a2.6,2.6,0,0,0-.811,1.281,2.491,2.491,0,0,0,.029,1.139q.144.543.29,1.025A1.393,1.393,0,0,1,200.3,348.266Zm.58-24.546h.7q.231-.227.145-.37a.286.286,0,0,0-.261-.142.674.674,0,0,0-.377.142A.434.434,0,0,0,200.882,323.719Zm1.275,1.253q.232-.227.058-.341a.834.834,0,0,0-.464-.114,1.564,1.564,0,0,0-.579.114c-.194.076-.29.19-.29.341Zm.811,7.4a.265.265,0,0,0,.29-.057.256.256,0,0,0,.058-.285q-.058-.171-.521-.171a.225.225,0,0,0-.2-.256,3.645,3.645,0,0,0-.493-.028,3.975,3.975,0,0,1-.637-.057,1.039,1.039,0,0,1-.58-.285.512.512,0,0,0,.492.541,8.913,8.913,0,0,0,1.42.085Q202.795,332.32,202.968,332.376Zm-2.086,17.712h.7v-.57h-.7Zm.7-20.731a.429.429,0,0,0,.376-.285c.1-.19.2-.379.319-.57a1.427,1.427,0,0,1,.435-.456.836.836,0,0,1,.782.057,2.12,2.12,0,0,1-.116-.285,1.993,1.993,0,0,1-.2-.228.469.469,0,0,0-.377-.114,1.691,1.691,0,0,0-.551.114,1.506,1.506,0,0,0-.551.342,1.208,1.208,0,0,0-.319.6A1.078,1.078,0,0,0,201.578,329.358Zm0,20.161a.663.663,0,0,0,.434-.171,1.172,1.172,0,0,1,.377-.227.237.237,0,0,1,.29.114,1.883,1.883,0,0,1,.116.854.629.629,0,0,0,.463-.285,1.341,1.341,0,0,0,.29-.626.885.885,0,0,0-.116-.626.687.687,0,0,0-.637-.285c0,.152-.1.209-.29.171a3.05,3.05,0,0,0-.58-.057.555.555,0,0,0-.464.228C201.346,348.759,201.384,349.063,201.578,349.518Zm0-22.667h.579v-.626a.928.928,0,0,0-.058-.285.493.493,0,0,0-.521-.342Zm.579,8.2v-.684h-.579v.684Zm-.579,12.586a.95.95,0,0,0,.84.37q.376-.085.377-1.054a3.813,3.813,0,0,0-.841.085C201.7,347.1,201.578,347.3,201.578,347.639Zm7.65-30.868v1.31a.88.88,0,0,0-.2-.683.784.784,0,0,0-.522-.171,2.459,2.459,0,0,0-.638.085,2.186,2.186,0,0,1-.55.086c.153-.3.145-.513-.029-.627a5.272,5.272,0,0,0-.551-.313,1.3,1.3,0,0,1-.435-.313q-.146-.17.376-.626a2.364,2.364,0,0,1-1.709.228,7.782,7.782,0,0,0-2.173-.228.647.647,0,0,1-.319.626.646.646,0,0,0-.319.626q.522.229.7.085a1.077,1.077,0,0,0,.29-.4,1.077,1.077,0,0,1,.29-.4q.173-.141.638.085a.485.485,0,0,0,.406.541,4.21,4.21,0,0,0,.869.085,1.285,1.285,0,0,0-.464.883q0,.427.464.427.231-.227.2-.37a.649.649,0,0,0-.087-.228c-.039-.057-.029-.085.029-.085h.551q.463.512.232.683a.663.663,0,0,0-.232.57h.637a4.022,4.022,0,0,1,.087-.855.492.492,0,0,1,.551-.4,1.75,1.75,0,0,0,.463.626,1.624,1.624,0,0,0,.551.257,3.707,3.707,0,0,0,.666.114,2.91,2.91,0,0,1,.87.257,1.189,1.189,0,0,1-.174-.741.852.852,0,0,1,.232-.456,2.939,2.939,0,0,1,.377-.314.433.433,0,0,0,.2-.37h-1.275a.667.667,0,0,1,.725-.8,2.459,2.459,0,0,1,.637.086,2.177,2.177,0,0,0,.551.085V317.4c-.156,0-.339.134-.551.4a3.184,3.184,0,0,0-.492.855,1.691,1.691,0,0,0-.116.854q.058.4.522.4a2.607,2.607,0,0,1,.087-.741,2.082,2.082,0,0,1,.232-.512,2.117,2.117,0,0,0,.232-.513,2.6,2.6,0,0,0,.087-.74,2.909,2.909,0,0,1,.869-.627.624.624,0,0,0,.406-.626h-1.275a.591.591,0,0,0-.493-.6,2.388,2.388,0,0,0-1.1-.028,2.829,2.829,0,0,0-1.1.456.972.972,0,0,0-.492.8Zm-6.607,14.067a4.042,4.042,0,0,0,.435.285.349.349,0,0,0,.318.057q.116-.056.116-.513c-.194,0-.271-.094-.232-.285s.077-.389.116-.6a.776.776,0,0,0-.028-.484q-.087-.17-.551.057a.648.648,0,0,1-.319.626.7.7,0,0,0-.319.683A.78.78,0,0,1,202.621,330.838Zm.869,9.226q.231-.455.029-.712a.822.822,0,0,0-.492-.313,1.028,1.028,0,0,0-.58.057c-.194.077-.29.19-.29.342a.666.666,0,0,1,.638.313A.723.723,0,0,0,203.49,340.064Zm-.55,3.219a.6.6,0,0,0,.318-.428.86.86,0,0,0-.087-.57.432.432,0,0,0-.377-.285.586.586,0,0,1-.319.6.586.586,0,0,0-.319.6A.926.926,0,0,0,202.94,343.283Zm-.783,8.116q.463,0,.232-.228C202.234,351.019,202.157,351.094,202.157,351.4Zm.551-5.24a.486.486,0,0,0,.318-.171.651.651,0,0,0,.2-.341c.019-.114-.126-.094-.435.057Q202.562,346.159,202.708,346.158Zm.087-21.813h.7v-.626h-.7Zm0,2.506q.231.456.377.341a.476.476,0,0,0,0-.683Q203.026,326.4,202.795,326.852Zm.7-9.454a.59.59,0,0,1,.609.341.642.642,0,0,0,.667.341V317.4a1.12,1.12,0,0,0-.522-.257.951.951,0,0,0-.406.028A.563.563,0,0,0,203.49,317.4Zm0,1.936a1.613,1.613,0,0,1,.058-.6q.058-.085.522-.085a.5.5,0,0,1-.522-.285.622.622,0,0,1-.058-.285Zm.58,17.826a.842.842,0,0,1,.7-.228,1.7,1.7,0,0,1-.9-.228q-.378-.227-.377.228Q203.9,337.389,204.07,337.16Zm1.275-.228q-.464-.227-.609-.086a.36.36,0,0,0-.087.37.755.755,0,0,0,.261.4c.135.114.28.076.435-.114q.289,0,.29-.086a.466.466,0,0,0-.058-.2,1.817,1.817,0,0,1-.232-.285h.7v-1.253h.637q.231.457.058.655a2.526,2.526,0,0,1-.406.37,1.48,1.48,0,0,0-.406.484,1.207,1.207,0,0,0,.116,1,4.124,4.124,0,0,0-.9.085.481.481,0,0,0-.376.541q-.291-.513-.406-.4a.648.648,0,0,0,0,.74q.115.115.406-.341a4.188,4.188,0,0,0,.869-.086.486.486,0,0,0,.406-.541,1.3,1.3,0,0,0,.754-.2,1.494,1.494,0,0,0,.464-.512q.173-.313.318-.627a1.823,1.823,0,0,1,.377-.541c.154-.151.241-.2.261-.143a.659.659,0,0,1-.029.313c-.039.152-.087.323-.145.513a1.786,1.786,0,0,0-.087.513,6.2,6.2,0,0,0,.869-.057.447.447,0,0,0,.406-.512q-.521,0-.609-.4a4,4,0,0,1-.087-.854.915.915,0,0,1,.7.2,1.044,1.044,0,0,1,.232.427c.038.152.077.295.116.427a.268.268,0,0,0,.29.2,1,1,0,0,0,.173-.626.7.7,0,0,0-.232-.313c-.116-.094-.241-.2-.376-.313a.785.785,0,0,1-.2-.626.929.929,0,0,1-.724.171q-.435-.057-.9-.114a3.613,3.613,0,0,0-.9,0,.859.859,0,0,0-.667.569h-.7v.627a1.832,1.832,0,0,1-.522-.855,1.627,1.627,0,0,1-.058-.4,1.266,1.266,0,0,1-.087.455,1.151,1.151,0,0,0-.087.4.348.348,0,0,0,.145.285,1.077,1.077,0,0,0,.609.114Zm-.58,3.759q.463.228.7-.028a.888.888,0,0,0,0-1.2q-.232-.256-.7-.028Zm16-15.719a4.221,4.221,0,0,0-2.29-2.079,14.252,14.252,0,0,0-3.651-.911,32.048,32.048,0,0,0-4.347-.228q-2.291.03-4.434.028a5.38,5.38,0,0,0-.637,2.164,25.4,25.4,0,0,0-.174,3.076q0,1.653.058,3.275t.058,2.819h3.8q2.057,0,4.057-.171a23.553,23.553,0,0,0,3.709-.6,7.264,7.264,0,0,0,2.84-1.338,4.206,4.206,0,0,0,1.478-2.364A6.545,6.545,0,0,0,220.762,324.972Zm-12.809-9.454c-.31.3-.493.409-.551.313s-.087.01-.087.313a.961.961,0,0,0,.29-.057A.525.525,0,0,0,207.953,315.518Zm0,3.816q0,.228.174.142a1.084,1.084,0,0,0,.29-.2c.077-.075.1-.123.058-.143a1.4,1.4,0,0,0-.522.2v-.683h-.637c0,.341.1.551.29.626A.384.384,0,0,0,207.953,319.334Zm-.637,19.478h.637V337.5h-.637Zm1.217,0a1.167,1.167,0,0,0,.609-.086c.058-.057.087-.236.087-.541a1.177,1.177,0,0,0-.609.085A.957.957,0,0,0,208.533,338.812Zm3.883-.626c0,.3.067.475.2.512a.5.5,0,0,0,.435-.114,1.849,1.849,0,0,0,.435-.484,1.106,1.106,0,0,0,.2-.6v-.57q.464-.91.638-1.168a5.268,5.268,0,0,1,.637-.712h-2.55q0,.456-.725.854a2.647,2.647,0,0,1-1.188.4,1,1,0,0,1,.173.626,1.152,1.152,0,0,1-.232.37,4.686,4.686,0,0,0-.376.512,1.88,1.88,0,0,0-.2,1h1.275a4.4,4.4,0,0,1,.087-.883.5.5,0,0,1,.551-.427,1.052,1.052,0,0,0,.058.341A.536.536,0,0,0,212.416,338.185Zm-.637-18.282a2.425,2.425,0,0,0,.637-1.225,2.53,2.53,0,0,1,.7-1.281h-1.333a.818.818,0,0,1,.087.74,3.325,3.325,0,0,1-.319.513,1,1,0,0,0-.2.512Q211.314,319.449,211.779,319.9Zm.637-3.759v.626h.7v-1.253Zm.7,3.19a1.132,1.132,0,0,0-.348.057.485.485,0,0,0-.347.513,1.689,1.689,0,0,0,.609-.057Q213.111,319.79,213.111,319.334Zm1.855-3.19a.6.6,0,0,0,.29.6,1.1,1.1,0,0,0,.667.085,1.568,1.568,0,0,0,.666-.256.546.546,0,0,0,.29-.428h-1.912v-.626q0,.457-.087.228c-.058-.151-.242-.228-.55-.228a1.3,1.3,0,0,1-.609.94,1.3,1.3,0,0,0-.609.94q.926,0,1.16-.4A4.176,4.176,0,0,1,214.966,316.144Zm-1.275,2.506v.683a2.148,2.148,0,0,0,1.073.142c.251-.057.377-.142.377-.256s-.126-.237-.377-.37a2.334,2.334,0,0,0-1.073-.2c.154-.152.212-.257.174-.314a.264.264,0,0,0-.232-.086.786.786,0,0,0-.348.086.317.317,0,0,0-.174.314Zm1.507-.143q.405-.141.406-1.11h-1.275v1.253A2.614,2.614,0,0,0,215.2,318.508Zm-.869,20.3c.309,0,.492.076.55.228s.087.076.087-.228v-.626c0-.342-.107-.4-.319-.171A1.131,1.131,0,0,0,214.329,338.812Zm1.275-1.31v1.31a.648.648,0,0,1-.319.626.645.645,0,0,0-.318.626.685.685,0,0,0,.2.456,4.8,4.8,0,0,1,.377.484,1.513,1.513,0,0,1,.232.512.5.5,0,0,1-.174.484.642.642,0,0,0,.667-.342.589.589,0,0,1,.608-.342v1.88a2.029,2.029,0,0,0,.667-1,9.421,9.421,0,0,1,.609-1.509h.7a1.615,1.615,0,0,1-.348.939,1.621,1.621,0,0,0-.348.94h1.333a2.481,2.481,0,0,0,.145-1.2,3.924,3.924,0,0,0-.261-.911l-.348-.8a2.115,2.115,0,0,1-.173-.854.824.824,0,0,0-.638.2.755.755,0,0,0-.173.513,3.365,3.365,0,0,0,.058.626,3.117,3.117,0,0,1,.058.541.6.6,0,0,0-.609.313q-.145.313-.667.313v-1.253a.779.779,0,0,0-.463.171c-.155.114-.29.209-.406.285a.289.289,0,0,1-.29.057q-.117-.056-.116-.513h1.275a1.2,1.2,0,0,0-.116-.626.563.563,0,0,0-.29-.228c-.116-.037-.252-.075-.406-.114a1.018,1.018,0,0,1-.464-.285,1.3,1.3,0,0,0,.754-.2,1.5,1.5,0,0,0,.464-.513q.174-.313.319-.626a1.462,1.462,0,0,1,.435-.541,3.2,3.2,0,0,1-1.043-.114c-.194-.075-.29-.171-.29-.285a.645.645,0,0,1,.2-.4q.2-.227.435-.456a4.319,4.319,0,0,0-.753.456,2.6,2.6,0,0,0-.464.456c-.116.152-.223.3-.319.456a2.62,2.62,0,0,1-.376.456Zm1.275-17.6a.8.8,0,0,1-.261-.456,1.237,1.237,0,0,0-.116-.4.749.749,0,0,0-.261-.285,1.256,1.256,0,0,0-.637-.114V319.9h1.971a1.679,1.679,0,0,1,.29-.912,1.692,1.692,0,0,0,.29-.912h-1.275a1.819,1.819,0,0,0,.261.912Q217.4,319.449,216.879,319.9Zm2.609,25.23v.57h1.275a.789.789,0,0,0,.2.626.78.78,0,0,0,.522.171,3.634,3.634,0,0,0,.637-.057,3.249,3.249,0,0,1,.551-.057,1.13,1.13,0,0,0-.348.057.488.488,0,0,0-.29.512.684.684,0,0,0,.637-.285.685.685,0,0,1,.637-.285v.57h.637q0-.455-.087-.512a1.453,1.453,0,0,0-.551-.057.648.648,0,0,0-.318-.626,1.516,1.516,0,0,0-.725-.17,6.568,6.568,0,0,0-.84.057,5.569,5.569,0,0,1-.667.057,1.036,1.036,0,0,0-.116-.6.362.362,0,0,0-.29-.143,1.188,1.188,0,0,0-.406.086,1.339,1.339,0,0,1-.464.085l.58-.683a1.793,1.793,0,0,1-1.015.2,1.092,1.092,0,0,1-.492-.256c-.116-.114-.232-.237-.348-.37a.823.823,0,0,0-.637-.2q-.522,0-.261.4a1.626,1.626,0,0,1,.261.911Zm2.55-10.764c-.31-.151-.493-.161-.551-.028a.8.8,0,0,0-.029.484c.038.19.077.38.116.569s-.02.285-.174.285c-.156-.341-.319-.493-.493-.455a1.64,1.64,0,0,0-.58.284q-.319.229-.666.513a1.239,1.239,0,0,1-.811.285v-1.253a.868.868,0,0,0,.376.256.4.4,0,0,0,.261-.028,1.542,1.542,0,0,0,.232-.143.584.584,0,0,1,.348-.085,1.494,1.494,0,0,1,.261-.883q.261-.369-.261-.37a1.135,1.135,0,0,0-.551.427c-.058.134-.107.238-.145.313s-.136.114-.29.114a3.2,3.2,0,0,1-.927-.285,2.563,2.563,0,0,1,.174,1.054,1.255,1.255,0,0,1-.232.541,4.55,4.55,0,0,0-.348.541,2.157,2.157,0,0,0-.174,1,3.287,3.287,0,0,0,1.217.284,3.428,3.428,0,0,0,.927-.114,3.948,3.948,0,0,0,.782-.313q.376-.2.9-.427c0-.151-.029-.208-.087-.171s-.136.1-.232.171-.174.134-.232.171-.087-.019-.087-.171v-.626c.154.152.28.209.377.17a.774.774,0,0,0,.261-.17.763.763,0,0,1,.261-.171c.1-.037.222.019.377.171q0,.456.174.512a.264.264,0,0,0,.29-.057.256.256,0,0,0,.058-.285q-.058-.17-.521-.17v-1.937h.637a2.334,2.334,0,0,0,.174-1.025q-.058-.342-.232-.341t-.377.341A2.049,2.049,0,0,0,222.037,334.369Zm-3.883-17.6c-.155,0-.2.057-.145.171a1.706,1.706,0,0,0,.2.313c.077.095.125.124.145.085a1.655,1.655,0,0,0-.2-.57,4.54,4.54,0,0,0,.927-.085.486.486,0,0,0,.406-.541,1.558,1.558,0,0,0-.927.342Q218.328,316.658,218.154,316.771Zm.377,2.648.2.2a2.128,2.128,0,0,0,.116.285c0-.3.028-.474.087-.513a1.456,1.456,0,0,1,.551-.057.536.536,0,0,1-.58-.342,1.05,1.05,0,0,1-.058-.341c0,.341-.116.551-.348.626a.385.385,0,0,1-.348.057A.571.571,0,0,1,218.531,319.419Zm.956,26.967a.694.694,0,0,0-.2-.456,1.34,1.34,0,0,0-.463-.341,1.177,1.177,0,0,0-.463-.114c-.136,0-.2.077-.2.228a.526.526,0,0,1,.406.2,4.037,4.037,0,0,1,.29.37.823.823,0,0,0,.26.256Q219.254,346.614,219.487,346.386Zm-.637-28.306a1.526,1.526,0,0,0,.406.285,1.4,1.4,0,0,0,.811.285V317.4a3.451,3.451,0,0,0-1.073.085Q218.849,317.568,218.85,318.081Zm1.912,2.449a1.443,1.443,0,0,0-.348-.854,1.485,1.485,0,0,0-.347-.341c-.31.3-.435.579-.377.826S220.1,320.53,220.762,320.53Zm-.7,26.426a.277.277,0,0,1,.058-.285q.115-.285.637-.285-.522,0-.637-.342a.367.367,0,0,1-.058-.341,1.633,1.633,0,0,1-.232.883C219.68,346.833,219.757,346.956,220.067,346.956Zm.7-30.185v1.31l.638-.683-.638-.627a.585.585,0,0,0-.492-.17.391.391,0,0,0-.261.17q-.058.115.116.171A1.033,1.033,0,0,0,220.762,316.771Zm-.7,1.88a4.925,4.925,0,0,0,.84-.057q.318-.056-.145-.513a.484.484,0,0,1-.348.513A1.1,1.1,0,0,1,220.067,318.651Zm0,24.546h.7v-.626h-.7Zm0,1.253a1.382,1.382,0,0,0,.579-.171,3.014,3.014,0,0,1,.58-.228.245.245,0,0,1,.318.143,1.805,1.805,0,0,1-.145.939h1.275a1.539,1.539,0,0,0-.319-.939,1.779,1.779,0,0,0-.724-.6,1.151,1.151,0,0,0-.87,0A1.253,1.253,0,0,0,220.067,344.45Zm.7,4.385a2.984,2.984,0,0,1,.29-1.367c.117-.189.232-.36.348-.512h-.638a2.235,2.235,0,0,1-.087.6q-.087.313-.174.6a1.127,1.127,0,0,0-.058.484C220.462,348.769,220.568,348.835,220.762,348.835Zm0-14.466q-.291.741-.029.741a.7.7,0,0,0,.493-.228.679.679,0,0,0,.232-.484Q221.458,334.141,220.762,334.369Zm0-.569a1.042,1.042,0,0,0,.7-.2.509.509,0,0,0,0-.854,1.044,1.044,0,0,0-.7-.2Zm.638,16.971a2.4,2.4,0,0,1,.087-.569,2.4,2.4,0,0,0,.087-.57.264.264,0,0,0-.174-.285,1.047,1.047,0,0,0-.638.171.584.584,0,0,0,.319.6C221.293,350.212,221.4,350.43,221.4,350.771Zm0-32.121h.637v-.57H221.4Zm0,1.253h.637v-.57H221.4Zm1.912,11.96a4.218,4.218,0,0,1-.869-.085.486.486,0,0,1-.406-.541v.626l-.348.114a.608.608,0,0,0-.29.57,1.433,1.433,0,0,1,.84-.171,1.837,1.837,0,0,1,.667.228q.289.171.551.341a.906.906,0,0,0,.492.171.99.99,0,0,1-.29-.541,3.26,3.26,0,0,1-.058-.6,4.172,4.172,0,0,0-.029-.512.236.236,0,0,0-.261-.228Zm-.637-11.334a1.094,1.094,0,0,0-.551.2,1.405,1.405,0,0,0-.492.513.975.975,0,0,0-.116.655.824.824,0,0,0,.522.57l.637-.684c0,.646.106,1,.319,1.054s.318-.066.318-.37a1.082,1.082,0,0,0-.058-.342.537.537,0,0,0-.58-.342.661.661,0,0,1,.232-.569q.231-.17-.232-.684.7-.227.811.028a1.1,1.1,0,0,1,.058.627,4.129,4.129,0,0,0-.058.626c0,.171.154.162.463-.029q0,.513.406.6a4.219,4.219,0,0,0,.87.085.474.474,0,0,1-.087-.57,6.927,6.927,0,0,1,.319-.655,1.615,1.615,0,0,0,.2-.513c.019-.132-.126-.2-.435-.2s-.493.1-.551.285a2.045,2.045,0,0,0-.087.6,1.083,1.083,0,0,1-.087.484c-.058.114-.242.077-.551-.114a4.7,4.7,0,0,1,.087-1.167,2.2,2.2,0,0,1,.551-.712h-1.275v-.57c-.154-.151-.281-.208-.376-.171a.376.376,0,0,0-.2.285,2.211,2.211,0,0,0-.058.541Zm-.637,30.242a4.227,4.227,0,0,0,.869-.085q.405-.086.406-.6a1.938,1.938,0,0,1-.464-.057,1.768,1.768,0,0,0-.406-.057.341.341,0,0,0-.29.171A1.191,1.191,0,0,0,222.037,350.771Zm1.275.627a4.675,4.675,0,0,0-.637-.228c-.426-.076-.637,0-.637.228a1.756,1.756,0,0,1,.869.227Q223.312,351.854,223.312,351.4Zm1.275-17.6h-.638c-.154.152-.213.237-.174.256a1.426,1.426,0,0,1,.174.114.512.512,0,0,1,.174.256,1,1,0,0,1-.174.627h-1.275a.644.644,0,0,0,.319.626.648.648,0,0,1,.318.627q.463-.456.869-.94a1.542,1.542,0,0,0,.406-1V333.8a.946.946,0,0,0,.58-.057q.463-.114.058-.626a1,1,0,0,0-.551.085A1.124,1.124,0,0,0,224.587,333.8Zm-1.913,14.466h.551a2.31,2.31,0,0,0,.55-.057.486.486,0,0,0,.319-.2c.058-.094.009-.218-.145-.37h-1.275Zm0,1.253h.637v-.683h-.637Zm2.55-23.293a3.971,3.971,0,0,1-.087.854.492.492,0,0,1-.55.4v-.626h-.638q0,.456.087.541a.994.994,0,0,0,.551.086v1.879a1.744,1.744,0,0,1-.87-.228c-.271-.151-.406-.076-.406.228q-.464.456-.232.456c.154,0,.232-.152.232-.456a.269.269,0,0,1,.29.2c.038.134.077.256.116.37a.435.435,0,0,0,.232.256c.116.057.328-.009.638-.2v-.626a.492.492,0,0,0,.55-.4,3.975,3.975,0,0,0,.087-.854q.464.228.637.057a.861.861,0,0,0,.232-.456q.058-.284.116-.57c.038-.189.135-.285.29-.285,0,.3.067.484.2.541a1.346,1.346,0,0,0,.521.086,2.458,2.458,0,0,1,.637.085.948.948,0,0,1,.551.541.843.843,0,0,1-.261-.37.377.377,0,0,1,.029-.256c.038-.075.087-.161.145-.256a.7.7,0,0,0,.087-.37,3.072,3.072,0,0,1-.782-.085c-.213-.057-.145-.237.2-.541h-2.608V325.6H223.95a.485.485,0,0,0,.406.541A4.184,4.184,0,0,0,225.225,326.225Zm-1.913-1.879q0,.969.087,1c.058.019.106-.076.145-.285a2.3,2.3,0,0,0,.029-.626C223.553,324.223,223.466,324.194,223.312,324.346Zm0,4.385q.231.228.348.085a.744.744,0,0,0,0-.8q-.117-.141-.348.085Zm1.913-10.08H223.95q0,.512.638.512T225.225,318.651Zm-1.275,5.068q.464.228.7.057a.538.538,0,0,0,.232-.456.907.907,0,0,0-.232-.57.846.846,0,0,0-.7-.285Zm1.913,7.518q0,.513-.29.6a2.05,2.05,0,0,1-.58.085,1.547,1.547,0,0,0-.464.057c-.117.039-.1.228.058.57H226.5v-1.31h-.637v-1.253h-.637v1.253Zm-.637-6.891h.637v-1.31h-.637Zm1.275.626h-.637q-.232.229-.087.342a.782.782,0,0,0,.812,0q.144-.114-.087-.342h.637v.626a1.178,1.178,0,0,0,.609-.085c.058-.057.087-.237.087-.541q.405,0,.2-.228c-.136-.151-.2-.076-.2.228h-.7v-1.253H226.5Zm.637-3.19a.449.449,0,0,0-.405-.512,6.372,6.372,0,0,0-.87-.057v.569Zm-1.275,7.575h.637a2.906,2.906,0,0,0-.087-.769q-.087-.312-.551.143Zm1.275,21.414q0-.512-.637-.512t-.637.512Zm-.637-27.735h1.333a.457.457,0,0,0-.435-.513,7.024,7.024,0,0,0-.9-.057Zm0,8.2c.154.342.27.475.348.4a.648.648,0,0,0,0-.741Q226.731,330.782,226.5,331.237Zm1.333,20.161a1.859,1.859,0,0,1-.927-.228c-.271-.151-.406-.076-.406.228Zm-.7-20.731q.522,0,.609-.427a4.431,4.431,0,0,0,.087-.883h-.7Z" transform="translate(-196.419 -312.842)"/><path class="a" d="M294.328,312.64v-.626a32.576,32.576,0,0,1,9.013,1.538,21.388,21.388,0,0,1,6.608,3.531,18.637,18.637,0,0,1,4.521,5.325,28.14,28.14,0,0,1,2.753,6.92,28.843,28.843,0,0,1-.7,9.967,18.387,18.387,0,0,1-3.622,7.062,18.644,18.644,0,0,1-6.028,4.67,32.9,32.9,0,0,1-7.97,2.677h-6.549a20.457,20.457,0,0,1-4.086-.826,20.856,20.856,0,0,1-3.536-1.481,19.816,19.816,0,0,1-3.129-2.078,34.1,34.1,0,0,1-2.927-2.677,18.479,18.479,0,0,1-3.709-6.863,21.465,21.465,0,0,1-.811-7.66,23.792,23.792,0,0,1,1.826-7.518,21.272,21.272,0,0,1,4.144-6.407,18.361,18.361,0,0,1,6.2-4.3A17.245,17.245,0,0,1,294.328,312.64ZM277.347,333.2h1.333a.881.881,0,0,0-.2-.684,1.186,1.186,0,0,0-.377-.228l-.261-.085c-.058-.019-.01-.123.145-.313h-1.971q-.232.683.029.712a1.96,1.96,0,0,0,.637-.057,2,2,0,0,1,.637-.057Q277.578,332.517,277.347,333.2Zm-1.333.569q.231.228.377.086a.545.545,0,0,0,0-.74q-.146-.142-.377.085Zm.7,2.563c0-.3-.116-.456-.348-.456s-.348.152-.348.456c.27-.228.464-.3.58-.228A.634.634,0,0,1,276.709,336.332Zm0,.74c0,.153-.029.238-.087.256a.191.191,0,0,1-.174-.028.114.114,0,0,1-.058-.142C276.409,337.1,276.515,337.073,276.709,337.073Zm0-8.372a3.137,3.137,0,0,0-.232,1c.037.019.106-.066.2-.256a2.2,2.2,0,0,0,.2-.627C276.92,328.587,276.863,328.549,276.709,328.7Zm0-1.31q.463,0,.232-.228C276.785,327.012,276.709,327.087,276.709,327.391Zm0,3.929h.637v-.683h-.637Zm0,4.443q.23,0,.347-.313a1.793,1.793,0,0,0,.116-.627.858.858,0,0,0-.116-.484q-.117-.17-.347.057Zm0,2.563h.637V337.7h-.637Zm2.55,1.31h-1.912c0-.342-.029-.531-.087-.57s-.107-.009-.145.085a.559.559,0,0,0-.029.313c.019.114.106.171.261.171q-.233.457.029.6a1.131,1.131,0,0,0,.7.085,2.363,2.363,0,0,0,.811-.256q.376-.2.376-.427h.638a2.671,2.671,0,0,0-.145-.912q-.145-.4-1.073-.4a.664.664,0,0,0,.29.627A.727.727,0,0,1,279.259,339.636Zm-1.912-13.441a.984.984,0,0,1,1.072-.313,5.378,5.378,0,0,1,1.043.513,3.143,3.143,0,0,0,.811.4q.319.085.319-.6a1.062,1.062,0,0,1-.985-.028q-.464-.256-.9-.484a1.731,1.731,0,0,0-.782-.228C277.694,325.454,277.5,325.7,277.347,326.195Zm0,3.759h.637v-.626h-.637Zm3.245,4.443a2.835,2.835,0,0,1-.985-.171c-.31-.114-.609-.208-.9-.285a1.9,1.9,0,0,0-.782-.057.834.834,0,0,0-.58.513,1.124,1.124,0,0,1,.985,0,9.445,9.445,0,0,1,.869.484,1.429,1.429,0,0,0,.754.256Q280.3,335.136,280.592,334.4Zm-3.245,2.676h.637a1.3,1.3,0,0,0-.087-.655,1,1,0,0,0-.55-.085Zm.637-9.682q.231,0,.29-.085a.09.09,0,0,0-.028-.143.2.2,0,0,0-.174-.028Q277.984,327.164,277.984,327.391Zm0,1.31c.154.152.28.181.377.085a.463.463,0,0,0,.145-.341c0-.133-.049-.208-.145-.228S278.138,328.359,277.984,328.7Zm0,3.19h.7v-.57h-.7Zm.7-1.253a3.824,3.824,0,0,0,.841-.085q.376-.085.377-.6h-1.218Zm0,10.878c.154,0,.241-.029.261-.086a.187.187,0,0,0-.029-.17.093.093,0,0,0-.145-.028C278.709,341.268,278.679,341.364,278.679,341.515Zm1.218-12.188c0,.342.067.532.2.569a.279.279,0,0,0,.319-.085.312.312,0,0,0,.058-.313q-.058-.171-.58-.171V328.7q-.465-.227-.7-.085a.459.459,0,0,0,0,.8Q279.432,329.555,279.9,329.327Zm-.638-1.253a1.19,1.19,0,0,0,.638-.057,1.261,1.261,0,0,0,.492-.2.486.486,0,0,0,.2-.427,1.5,1.5,0,0,1-.521-.085,1.2,1.2,0,0,0-.406-.086.341.341,0,0,0-.29.171A1.344,1.344,0,0,0,279.259,328.074Zm0,15.32h.638v-.57h-.638Zm.638-21.129c.153.342.28.5.376.484s.146-.094.146-.228a.466.466,0,0,0-.146-.342C280.176,322.085,280.05,322.114,279.9,322.265Zm0,11.5c.153,0,.251-.028.29-.085a.091.091,0,0,0-.029-.143.2.2,0,0,0-.174-.028C279.926,333.533,279.9,333.618,279.9,333.769Zm1.391,6.493a1.76,1.76,0,0,0-.551.085,1.843,1.843,0,0,0-.435.2c-.155.114-.29.209-.406.285,0,.191.067.285.2.285a1.17,1.17,0,0,0,.464-.114,1.938,1.938,0,0,0,.493-.313A.568.568,0,0,0,281.288,340.262Zm3.188,3.132c-.155.19-.2.333-.145.427a.612.612,0,0,0,.348.228,1.858,1.858,0,0,0,.58.085h.609c.154.3.164.513.029.627a.878.878,0,0,1-.579.17,4.225,4.225,0,0,1-.812-.085,3.762,3.762,0,0,0-.666-.085q.463-.456-.145-.541a8.113,8.113,0,0,0-1.13-.086,1.472,1.472,0,0,0-.145-1.31,2.741,2.741,0,0,0-.928-.883,1.95,1.95,0,0,0-1.072-.285.486.486,0,0,0-.522.541.562.562,0,0,1,.406.171l.348.341a.957.957,0,0,0,1.217.114,4.419,4.419,0,0,0,.087.883q.088.427.609.427v.627h1.275c-.155.3-.174.483-.058.541a.81.81,0,0,0,.492.028q.318-.056.609-.114t.29.171a2.247,2.247,0,0,1,.174,1,.8.8,0,0,1-.261.484c-.136.114-.271.237-.406.37a.89.89,0,0,0-.2.655h1.391a.972.972,0,0,0,.29.768q.289.256.29-.768h-.58a.85.85,0,0,0,.261-.541c.019-.208.029-.418.029-.626a3.606,3.606,0,0,1,.029-.513q.028-.2.261-.2a1.189,1.189,0,0,1-.174-.741,3.71,3.71,0,0,1,.116-.456.44.44,0,0,0,0-.314q-.058-.141-.521-.37a1.025,1.025,0,0,0-.435-.883q-.434-.313-.956.143a3.506,3.506,0,0,0-.464-1.737,1.55,1.55,0,0,0-1.449-.826V342.2a4.093,4.093,0,0,1,.9.086.481.481,0,0,1,.377.541.658.658,0,0,0-.29.057.488.488,0,0,0-.29.513.675.675,0,0,0,.609-.228Q284.011,342.94,284.475,343.395Zm-3.883-18.567q-.291.513,0,.769a1.318,1.318,0,0,0,.725.313,2.065,2.065,0,0,0,.84-.057q.405-.114.406-.4a.788.788,0,0,1-.754.143,1.168,1.168,0,0,1-.463-.4,2.818,2.818,0,0,0-.348-.427C280.882,324.657,280.746,324.677,280.592,324.828Zm.7,19.307a1.3,1.3,0,0,0-.087-.655,1.176,1.176,0,0,0-.609-.085.468.468,0,0,0,.058.4Q280.765,344.135,281.288,344.135Zm-.7-15.434c.154.152.28.181.377.085a.462.462,0,0,0,.145-.341c0-.133-.049-.208-.145-.228S280.746,328.359,280.592,328.7Zm.7,6.436a1.129,1.129,0,0,0-.348.057.527.527,0,0,0-.348.57q.522-.455.609-.313C281.258,335.545,281.288,335.441,281.288,335.136Zm0-5.809q0,.513.087.484t.145-.228a.736.736,0,0,0,.029-.341Q281.518,329.1,281.288,329.327Zm0,7.745h.58v-.74h-.58Zm0,1.253h.58a1.374,1.374,0,0,0-.058-.541q-.058-.085-.521-.085Zm0,7.689h1.971a.657.657,0,0,0-.232-.456,2.433,2.433,0,0,0-.55-.4,4.786,4.786,0,0,0-.637-.285,1.69,1.69,0,0,0-.551-.114Zm.58-5.752h.7l.7-.626h-1.391Zm6.607-17.371q-.986.969-1.913,1.965a14.077,14.077,0,0,0-1.681,2.221,11.1,11.1,0,0,0-1.188,2.705,12.159,12.159,0,0,0-.435,3.417,9.844,9.844,0,0,0,1.333,5.809,11.541,11.541,0,0,0,3.912,3.9,14.521,14.521,0,0,0,5.332,1.908,14.975,14.975,0,0,0,5.68-.171,12.043,12.043,0,0,0,4.9-2.335,8.717,8.717,0,0,0,2.956-4.613,16.422,16.422,0,0,0,.55-6.664,11.379,11.379,0,0,0-2.086-5.3,11.091,11.091,0,0,0-4.405-3.474,15.334,15.334,0,0,0-6.4-1.253h-.7a7.189,7.189,0,0,0-1.768.2,8.219,8.219,0,0,0-1.449.512q-.667.314-1.3.626A10.155,10.155,0,0,1,288.474,322.892Zm-5.216,25h.58a1.4,1.4,0,0,0-.058-.541c-.039-.057-.213-.086-.522-.086Zm1.217-28.818a1.132,1.132,0,0,0-.348.057c-.194.076-.29.266-.29.569a.952.952,0,0,0,.29-.057A.524.524,0,0,0,284.475,319.076Zm0,2.563h1.391q.464.456.464.228t-.464-.228c.154-.3.2-.513.145-.626a.352.352,0,0,0-.348-.171,2.6,2.6,0,0,0-.609.085,2.5,2.5,0,0,1-.58.086v-.626h-.637q0,.456.087.541a.993.993,0,0,0,.551.086Zm-.29,2.278a.651.651,0,0,0,0-.741c-.078-.075-.194.057-.348.4Q284.068,324.032,284.186,323.917Zm-.348,22.724h.637v-.626h-.637Zm2.608.626h.638a.953.953,0,0,0-.087-.541,1,1,0,0,0-.551-.086Zm.638-28.875h.753v-.626h-.753Zm0,30.868c.193,0,.3-.028.318-.085a.189.189,0,0,0-.029-.171c-.039-.057-.1-.066-.174-.028S287.084,349.109,287.084,349.26Zm.753-32.8q.231.513.348.4a.651.651,0,0,0,0-.741Q288.068,316,287.837,316.456Zm0,2.62a3.748,3.748,0,0,1,.261.683.457.457,0,0,1-.029.285l-.145.285a1.751,1.751,0,0,0-.087.683.6.6,0,0,0,.609-.313.6.6,0,0,1,.608-.313,6.519,6.519,0,0,0-.058-.912q-.058-.4-.522-.4Zm3.13,27.564a1.766,1.766,0,0,1-1.1.086,2.4,2.4,0,0,1-.724-.4,4.069,4.069,0,0,0-.58-.4.8.8,0,0,0-.725.086q0,.228.406.541a3.066,3.066,0,0,0,.927.484,2.457,2.457,0,0,0,1.044.114A.9.9,0,0,0,290.967,346.64Zm-2.492,1.253v.683h1.275v-.683h-1.275v-.627h-.637c0,.3.029.484.087.541A1,1,0,0,0,288.474,347.894Zm-.637,2.619c.154.19.27.228.348.114a.609.609,0,0,0,.116-.342c0-.114-.039-.18-.116-.2S287.991,350.21,287.837,350.513Zm1.217-35.31a.662.662,0,0,0-.29.057c-.194.077-.29.266-.29.57a.973.973,0,0,0,.29-.057C288.957,315.7,289.054,315.508,289.054,315.2Zm0,34.057a.661.661,0,0,0-.29.057c-.194.076-.29.266-.29.569a.958.958,0,0,0,.29-.057C288.957,349.754,289.054,349.565,289.054,349.26Zm.7-32.8a.592.592,0,0,0-.492.285,1.472,1.472,0,0,0-.261.6.509.509,0,0,0,.116.484c.116.114.328.095.638-.057v-1.31h.637v-.626a1,1,0,0,0-.551.085C289.779,315.972,289.75,316.153,289.75,316.456Zm.637,32.8q-.465,0-.637.712a2.52,2.52,0,0,1-.7,1.224h.7a.544.544,0,0,1,.173-.4l.348-.341a1.061,1.061,0,0,0,.261-.456,1.034,1.034,0,0,0-.145-.741h1.971a2.681,2.681,0,0,0,.869.911,4.7,4.7,0,0,0,1.391.684,4.161,4.161,0,0,0,1.391.2,1.044,1.044,0,0,0,.927-.541,1.3,1.3,0,0,1-.754-.2q-.29-.2-.521-.37a1.3,1.3,0,0,0-.522-.228,1.484,1.484,0,0,0-.811.171q0-.455-.753-.541a11.243,11.243,0,0,0-1.218-.086.813.813,0,0,0-.232-.684,1.639,1.639,0,0,0-.551-.256,3.87,3.87,0,0,0-.637-.114.783.783,0,0,1-.551-.313Zm.985,1.566q-.29.03-.58.086a.886.886,0,0,0-.464.228c-.116.114-.1.342.058.684a2.722,2.722,0,0,0,1.565-.4,5.964,5.964,0,0,0,1.043-.912h-1.333v-.626c-.194-.152-.329-.171-.406-.057a.743.743,0,0,0,0,.8c.077.114.212.076.406-.114A.283.283,0,0,1,291.372,350.826Zm1.623-35a.734.734,0,0,0-.232-.626,1.3,1.3,0,0,0-.522-.228q-.29-.056-.666-.114a1.061,1.061,0,0,1-.608-.285c-.155.456-.165.778-.029.968a.825.825,0,0,0,.58.341,2.869,2.869,0,0,0,.811,0A5.666,5.666,0,0,1,293,315.83Zm-1.333,1.367a4.54,4.54,0,0,0,.927-.085q.405-.085.406-.655h-1.333Zm0,30.7c.154.19.28.228.377.114a.622.622,0,0,0,0-.8c-.1-.114-.223-.094-.377.057Zm1.971-29.5-.348.114a.607.607,0,0,0-.29.57,1,1,0,0,0,.551-.086A1.118,1.118,0,0,0,293.633,318.392Zm0,29.5-.348.114a.608.608,0,0,0-.29.569,1,1,0,0,0,.551-.085A1.117,1.117,0,0,0,293.633,347.894Zm.7-30.7a1.533,1.533,0,0,0-.927.171c-.116.114-.136.209-.058.285a.444.444,0,0,0,.406.057A1.012,1.012,0,0,0,294.328,317.2Zm-.7-1.367c.154.341.28.475.376.4a.544.544,0,0,0,0-.741C293.913,315.412,293.787,315.526,293.633,315.83Zm0,35.994h.7a3.27,3.27,0,0,0-.087-.8q-.087-.342-.609.171Zm1.391-34.627h.637v-.74h-.637Zm3.13,30.7h-.58a2.017,2.017,0,0,1-.667-.171c-.29-.114-.571-.208-.84-.285a1.646,1.646,0,0,0-.724-.057c-.213.038-.319.209-.319.513a1.57,1.57,0,0,1,.811.114.3.3,0,0,1,.058.314,2.688,2.688,0,0,0-.087.456c-.02.171.125.333.435.484a.879.879,0,0,1,.2-.684.783.783,0,0,1,.522-.17,2.464,2.464,0,0,1,.637.085,2.173,2.173,0,0,0,.551.085v.684a4.843,4.843,0,0,1,.985.086.487.487,0,0,1,.406.541,2.881,2.881,0,0,0,1.043-.228,2.057,2.057,0,0,1,1.565.228.683.683,0,0,0,.2.456.86.86,0,0,0,.435.285.516.516,0,0,0,.435-.085q.2-.142.2-.655h-1.275q0-.512-.406-.569a6.134,6.134,0,0,0-.84-.057,2.3,2.3,0,0,1-.7-.085q-.261-.085-.029-.6a.751.751,0,0,0,.7-.284q.173-.285.347-.6a1.2,1.2,0,0,1,.493-.484,1.525,1.525,0,0,1,1.072.057v-1.252a10.092,10.092,0,0,1-2.289.712A4.981,4.981,0,0,0,298.154,347.894ZM295.661,315.2q.231.457.319.342a.717.717,0,0,0,0-.684Q295.893,314.748,295.661,315.2Zm.58,1.993a1.215,1.215,0,0,0,.927-.456,1.383,1.383,0,0,0,.406-.911h-.638a.264.264,0,0,1-.2.285c-.136.038-.261.077-.377.114a.434.434,0,0,0-.261.256A1.02,1.02,0,0,0,296.241,317.2Zm.7,32.691h.638v-.626c0-.342-.107-.4-.319-.171A1.132,1.132,0,0,0,296.936,349.887Zm.638-34.684h.58v-.626h-.58Zm0,2.563q.522.228.754.057a.492.492,0,0,0,.232-.4.425.425,0,0,0-.232-.37q-.232-.142-.754.142Zm0,34.058q.522.228.754.057a.492.492,0,0,0,.232-.4.425.425,0,0,0-.232-.37q-.232-.141-.754.085Zm.58-35.368h.753v-.626h-.753Zm0,34.057h.753v-.626h-.753Zm1.391-32.748a1.129,1.129,0,0,0-.348.057c-.194.076-.29.266-.29.569a.957.957,0,0,0,.29-.057A.525.525,0,0,0,299.545,317.766Zm-.638,34.058h.638V351.2h-.638Zm.638-35.994a4.228,4.228,0,0,0,.869-.085.487.487,0,0,0,.406-.541h-1.275Zm0,1.367h.637v-.74h-.637Zm1.971,0a1.128,1.128,0,0,0-.348.057.486.486,0,0,0-.348.513,1.7,1.7,0,0,0,.609-.057C301.486,317.672,301.516,317.5,301.516,317.2Zm-.7,34c.154.153.28.171.377.057a.621.621,0,0,0,0-.8c-.1-.114-.223-.094-.377.057Zm.7-32.121q.231.741.348.626a.549.549,0,0,0,.116-.4,1.122,1.122,0,0,0-.116-.513C301.786,318.64,301.669,318.734,301.516,319.076Zm0,29.5h.637v-.683h-.637Zm1.275-30.184c.309,0,.386-.075.232-.228S302.79,318.089,302.79,318.392Zm.637,30.868c0-.342-.107-.513-.318-.513s-.319.171-.319.513Zm0-32.064h.7v-.74h-.7Zm.7,3.816q-.291-.513-.116-.683a.855.855,0,0,1,.406-.228c.154-.037.29-.066.406-.086s.1-.123-.058-.313h-1.333a.71.71,0,0,1,.2.513,2.159,2.159,0,0,1-.087.4.359.359,0,0,0,0,.285C303.582,320.975,303.776,321.012,304.124,321.012Zm0,23.749q-.291.456-.145.712c.1.171.2.256.319.256s.193-.085.232-.256S304.432,345.066,304.124,344.762Zm1.971,4.5h-1.971q-.291.457,0,.6a1.247,1.247,0,0,0,.725.085,2.655,2.655,0,0,0,.84-.256Q306.094,349.489,306.094,349.26Zm-1.971-.684a2.9,2.9,0,0,0,.87.171.632.632,0,0,0,.464-.171q.173-.17-.116-.683a.225.225,0,0,0-.2-.257.562.562,0,0,0-.406.114,2.4,2.4,0,0,0-.406.37A.689.689,0,0,0,304.124,348.577Zm1.217-31.381a.661.661,0,0,0-.29.057.489.489,0,0,0-.29.513.972.972,0,0,0,.29-.057A.488.488,0,0,0,305.341,317.2Zm0,5.069v-1.253h-.58a5.894,5.894,0,0,0,.058.854Q304.876,322.266,305.341,322.265Zm-.58,25h.58a1.377,1.377,0,0,0-.058-.541q-.058-.085-.522-.086Zm1.333-27.565c-.155.039-.29.077-.406.114a2.159,2.159,0,0,1-.232.2c-.078.057-.116.18-.116.37a2.05,2.05,0,0,1,.435-.285.69.69,0,0,1,.232-.057c.058,0,.087-.009.087-.028Zm0,26.313v-.627h-.754v.627Zm0-23.749h.637v-.626h-.637Zm2.608,22.5h-1.971v-.627h-.637c0,.3.029.484.087.541a.992.992,0,0,0,.55.086v1.879h1.333a.748.748,0,0,1-.174.456c-.116.152-.223.285-.318.4s-.126.209-.087.285.232.114.58.114a1.734,1.734,0,0,1,.782-1.51,11.924,11.924,0,0,1,1.768-1,3.706,3.706,0,0,0-.666.086,4.11,4.11,0,0,1-.782.085.716.716,0,0,1-.522-.171q-.173-.17.058-.626h1.275a.608.608,0,0,1-.174-.57c.038-.228.077-.436.116-.626a.912.912,0,0,0-.028-.513q-.087-.227-.551-.228a.434.434,0,0,1-.2.37,2.9,2.9,0,0,0-.377.313.853.853,0,0,0-.232.455A1.405,1.405,0,0,0,308.7,344.762Zm-1.971,4.5v-.684a1.079,1.079,0,0,0-.058-.341.536.536,0,0,0-.58-.341,4.694,4.694,0,0,0,.087.939A.5.5,0,0,0,306.732,349.26Zm.638-6.436a1.452,1.452,0,0,0-.551.057q-.087.058-.087.513c0-.152.029-.237.087-.256a.764.764,0,0,1,.232-.029.738.738,0,0,0,.232-.028C307.34,343.063,307.369,342.977,307.369,342.825Zm1.333-21.186v.626h-1.333v.626a4.5,4.5,0,0,0,.927-.086.486.486,0,0,0,.406-.541h.638q.463-.455.145-.541a3.084,3.084,0,0,0-.783-.085v-.626c-.347-.151-.6-.18-.753-.086a.459.459,0,0,0,0,.8C308.1,321.819,308.355,321.791,308.7,321.639Zm-1.333,22.5h.7v-.74h-.7Zm.7-19.307h.637v-.57h-.637Zm0,18h.637V342.2h-.637Zm1.275-17.371a.631.631,0,0,0-.348.114.664.664,0,0,0-.29.626.567.567,0,0,0,.29-.114l.232-.228A.548.548,0,0,0,309.34,325.454Zm0,16.061q0-.513-.087-.6a1,1,0,0,0-.551-.086v.684Zm1.275-19.876h-.637v1.253l-.348.114a.608.608,0,0,0-.29.57,1,1,0,0,1,.551.086,1.119,1.119,0,0,1,.087.6h-.637v.57h.637v-.57a2.3,2.3,0,0,0,.551-1.338q.087-.825.087-1.281.463,0,.232-.228C310.692,321.259,310.615,321.335,310.615,321.639Zm-1.275,6.436q.231.228.435.085a.631.631,0,0,0,.261-.342q.057-.2-.087-.228T309.34,328.074Zm0,12.188q.463,0,.551-.741a10.732,10.732,0,0,0,.087-1.2h-.637Zm1.913-3.93v.74q.521.229.753.057a.509.509,0,0,0,0-.854q-.232-.171-.753.057a3.63,3.63,0,0,0-.087-.826c-.058-.247-.242-.37-.551-.37.154.3.212.5.174.6a.226.226,0,0,1-.232.142,1.922,1.922,0,0,1-.579-.114c-.155.153-.2.266-.145.342a.551.551,0,0,0,.318.171,2.34,2.34,0,0,0,.551.057Zm-1.275-10.138q.463.456.609.4c.1-.037.125-.114.087-.228a.657.657,0,0,0-.261-.313C310.277,325.958,310.131,326.005,309.977,326.195Zm0,11.5h.637v-.627h-.637Zm1.275,3.132v.684q-.407.058-.638.114c-.194.077-.348.143-.464.2a.372.372,0,0,0-.173.37q.463-.227.637-.085a.634.634,0,0,1,.174.512,4.018,4.018,0,0,1-.087.8,3.668,3.668,0,0,0-.087.712,2.2,2.2,0,0,0,.985-.228,2.852,2.852,0,0,0,.754-.512,1.34,1.34,0,0,0,.377-.627.555.555,0,0,0-.145-.569c0,.3-.107.351-.319.143a1.1,1.1,0,0,1-.318-.826.263.263,0,0,1,.2-.285,1.738,1.738,0,0,1,.464-.057,3.23,3.23,0,0,0,.464-.028c.135-.019.2-.123.2-.313-.194.191-.339.266-.435.228a2.742,2.742,0,0,1-.348-.171,2.609,2.609,0,0,0-.464-.2,1.2,1.2,0,0,0-.782.142q-.233-.455-.522-.512a.528.528,0,0,0-.434.057q-.146.114.058.285A1.545,1.545,0,0,0,311.253,340.831Zm0-8.941q-.7-.227-.7.028a.672.672,0,0,0,.232.483.562.562,0,0,0,.464.2Q311.483,332.574,311.253,331.89Zm-.638-6.436h.638v-.626h-.638Zm.638,3.246a2.084,2.084,0,0,0-.087-.541,1.282,1.282,0,0,0-.232-.484c-.1-.114-.174-.161-.232-.143s-.087.2-.087.541q.231-.227.261-.086a1.917,1.917,0,0,1,.029.371,1.218,1.218,0,0,0,.058.4C311,328.871,311.1,328.853,311.253,328.7Zm-.638,10.935h.638a1.119,1.119,0,0,0-.087-.6,1,1,0,0,0-.551-.085Zm1.333-5.239a3.633,3.633,0,0,0-.087-.826q-.087-.369-.608-.37a1.054,1.054,0,0,1-.087.427.938.938,0,0,0-.087.371.333.333,0,0,0,.174.285A1.411,1.411,0,0,0,311.948,334.4Zm-.7-11.5h.7a.956.956,0,0,0-.087-.541,1.175,1.175,0,0,0-.608-.085Zm0,3.872c.154.342.28.465.376.371a.545.545,0,0,0,0-.741C311.532,326.3,311.406,326.423,311.253,326.764Zm1.333,3.19v1.937a.913.913,0,0,0,.7-.2.751.751,0,0,0,.173-.512,2.321,2.321,0,0,0-.087-.626,2.236,2.236,0,0,1-.087-.6h-.7a.486.486,0,0,0-.406-.541,4.5,4.5,0,0,0-.927-.086,1.022,1.022,0,0,1,.29.569,4.015,4.015,0,0,1,.058.655,4.232,4.232,0,0,0,.029.541c.019.152.125.228.319.228a2.406,2.406,0,0,0-.087-.569,2.473,2.473,0,0,1-.087-.6.364.364,0,0,1,.145-.342Q312.063,329.726,312.586,329.954Zm1.333,9.682a3.757,3.757,0,0,1-.666-.086,4.242,4.242,0,0,0-.812-.085,1.006,1.006,0,0,0-.58.142q-.2.143.087.655a3.781,3.781,0,0,1,.58.057,3.912,3.912,0,0,0,.637.057.974.974,0,0,0,.521-.142.651.651,0,0,0,.232-.6q.463,0,.522-.171a.315.315,0,0,0-.058-.313.249.249,0,0,0-.291-.085C313.977,339.1,313.919,339.294,313.919,339.636Zm-1.971-14.808h.637v-.57h-.637Zm0,1.367c.154,0,.241-.037.261-.114a.169.169,0,0,0-.029-.171.135.135,0,0,0-.145-.029C311.977,325.9,311.948,326.005,311.948,326.195Zm.637,2.506q0-.455-.087-.541a1,1,0,0,0-.55-.085,1.053,1.053,0,0,0,.058.342C312.083,328.607,312.276,328.7,312.586,328.7Zm-.637,4.5h.637v-.627h-.637Zm1.333-6.436a1.127,1.127,0,0,0-.348.057.526.526,0,0,0-.348.57,1.175,1.175,0,0,0,.609-.085C313.252,327.248,313.281,327.069,313.281,326.764Zm-.7,7.632h.7c.154-.152.2-.265.145-.342a.309.309,0,0,0-.261-.114.779.779,0,0,0-.377.114A.369.369,0,0,0,312.586,334.4Zm0,4.556h.7q0-.456-.087-.541a1.167,1.167,0,0,0-.609-.086Zm.7-5.752q.463.228.7.057a.492.492,0,0,0,.232-.4.425.425,0,0,0-.232-.37q-.232-.141-.7.085Zm0,3.132h.637v-.57h-.637Zm1.275-8.941-.348.114a.607.607,0,0,0-.29.57c0-.152.029-.246.087-.285a.424.424,0,0,1,.232-.057.757.757,0,0,0,.232-.028C314.527,327.686,314.556,327.581,314.556,327.391Zm-.637,7.745q.463.228.7.057a.509.509,0,0,0,0-.854q-.233-.17-.7.057Zm1.188-6.037a.492.492,0,0,0-.551-.4,3.977,3.977,0,0,0,.087.854.491.491,0,0,0,.551.4A4.014,4.014,0,0,0,315.107,329.1Zm-.551,3.474h1.275v-.683h-1.275Zm0,4.5q.463.229.7-.028a.963.963,0,0,0,0-1.253q-.232-.256-.7-.028Zm.638-3.3q0,.457.232.228c.154-.151.077-.228-.232-.228V333.2q-.232-.227-.348-.085a.648.648,0,0,0,0,.74Q314.961,334,315.194,333.769Z" transform="translate(-235.384 -312.014)"/><path class="a" d="M381.94,314.941q2.375,2.849,4.665,5.838t4.608,6.037q2.318,3.048,4.724,6.066t5.014,5.809q0-2.79-.174-5.895t-.2-6.208q-.03-3.1.145-6.094a27.209,27.209,0,0,1,.869-5.553q1.913,0,4.173.085a20.581,20.581,0,0,1,4.115.542V354.3a5.86,5.86,0,0,1-1.627.256q-.929.028-1.887-.028t-1.859-.142q-.9-.086-1.6-.086a77.255,77.255,0,0,1-5.46-5.809q-2.557-3.018-5-6.122t-4.879-6.237q-2.439-3.131-5.111-6.207,0,6.15.232,12.416a101.454,101.454,0,0,1-.232,11.96h-8.81V315.568a10.4,10.4,0,0,1,4.115-1A15.771,15.771,0,0,1,381.94,314.941Zm-5.1,6.834q0-.8-.058-1.367a1.727,1.727,0,0,0-.2-.684q-.145-.227-.377.228.231,0,.087.285a4.684,4.684,0,0,0-.261.626.869.869,0,0,0,0,.626C376.1,321.681,376.375,321.776,376.839,321.776Zm-.174,6.322a.7.7,0,0,1,.232-.313c.116-.094.241-.2.377-.313a.791.791,0,0,0,.2-.626.735.735,0,0,0-.811.028,1.384,1.384,0,0,0-.492.655,1.127,1.127,0,0,0,0,.8.626.626,0,0,0,.666.4A.993.993,0,0,1,376.665,328.1Zm-.463-3.759h.637a.957.957,0,0,0-.087-.541,1,1,0,0,0-.551-.085Zm0,10.594q.231.457.348.342a.563.563,0,0,0,0-.684Q376.432,334.476,376.2,334.932Zm0,8.714q.463,0,.232-.228T376.2,343.645Zm0,3.759h.637v-.626H376.2Zm0,2.506q.231.457.348.342a.563.563,0,0,0,0-.683Q376.432,349.455,376.2,349.91Zm.637-30.583h.637V318.7h-.637Zm0,21.869h.637v-.626h-.637Zm1.246-6.265h-.638a2.236,2.236,0,0,1-.087.6,2.221,2.221,0,0,0-.087.6.71.71,0,0,0,.173.484.819.819,0,0,0,.638.2v-1.879h.637a1.452,1.452,0,0,0,.058-1.054q-.174-.37-.406-.37t-.376.37A1.6,1.6,0,0,0,378.085,334.932Zm-.642,3.759h.551a2.343,2.343,0,0,0,.55-.057.486.486,0,0,0,.319-.2c.058-.095.009-.218-.145-.37h-1.275Zm.033-18.111h.638v-.627h-.638Zm0,4.385h.638v-.627h-.638Zm0,14.978h.638v-.683h-.638Zm.638,1.879a1.133,1.133,0,0,0-.348.057c-.194.077-.29.266-.29.57a1,1,0,0,0,.551-.085C378.085,342.307,378.114,342.127,378.114,341.823Zm0,1.2a1.133,1.133,0,0,0-.348.057c-.194.077-.29.266-.29.57a1,1,0,0,0,.551-.085C378.085,343.5,378.114,343.324,378.114,343.019Zm-.638,3.759h.638v-.57h-.638Zm.638-28.078v.627c.309,0,.5-.094.58-.285a1.077,1.077,0,0,0,.058-.342h.58v-.569a1.194,1.194,0,0,0-.521.057,1.119,1.119,0,0,0-.058.512Zm0,11.847q.463.286.7.114a.459.459,0,0,0,0-.8q-.233-.17-.7.057Zm.637,6.265a1.126,1.126,0,0,0-.347.057c-.194.076-.29.266-.29.57,0-.152.029-.237.087-.257a.783.783,0,0,1,.232-.028.414.414,0,0,0,.232-.057C378.723,337.058,378.751,336.963,378.751,336.811Zm-.637,8.77h.637v-.626h-.637Zm.6,3.759q0,.456.174.512a.263.263,0,0,0,.29-.057.255.255,0,0,0,.058-.285q-.058-.17-.521-.17v-.627c-.155-.151-.271-.18-.348-.085a.567.567,0,0,0-.116.37.69.69,0,0,0,.116.4C378.447,349.511,378.563,349.493,378.718,349.341Zm0-13.156q.231.228.319.085a.833.833,0,0,0,0-.74q-.087-.141-.319.085Zm.613-7.461a.66.66,0,0,0-.29.057.488.488,0,0,0-.29.513.961.961,0,0,0,.29-.057A.487.487,0,0,0,379.331,328.724Zm-.58,3.7h.58v-.569h-.58Zm0,8.145h.58v-1.31h-.58Zm.58,9.967a.659.659,0,0,0-.29.057c-.194.076-.29.266-.29.569a.958.958,0,0,0,.29-.057C379.234,351.03,379.331,350.841,379.331,350.537Zm.6-24.375h-.637v.683a1,1,0,0,0,.55-.086,1.118,1.118,0,0,0,.087-.6h.7v-.541a1.509,1.509,0,0,0-.087-.541.456.456,0,0,0-.232-.285q-.145-.056-.376.171Zm-.633,3.759a.876.876,0,0,1,.9-.313c.29.1.435-.008.435-.313a4.531,4.531,0,0,0-.927.085A.486.486,0,0,0,379.294,329.92Zm0,15.035q.463-.455.637-.228a.841.841,0,0,0,.7.228v-.626a4.5,4.5,0,0,0-.927.086A.486.486,0,0,0,379.294,344.955Zm.674-25.628a1.131,1.131,0,0,0-.348.057q-.29.114-.29.569a.953.953,0,0,0,.29-.057A.524.524,0,0,0,379.968,319.327Zm-.637,5.011h.637v-.626h-.637Zm0,6.892h.637v-.683h-.637Zm0,3.7h.637v-.626h-.637Zm.348,6.976a.744.744,0,0,0,0-.8c-.078-.095-.194-.066-.348.085v.626Q379.562,342.052,379.679,341.908Zm.29-25.087c.154.341.28.5.377.483s.145-.094.145-.227a.465.465,0,0,0-.145-.342C380.249,316.641,380.122,316.67,379.968,316.821Zm0,11.9c.154.152.28.17.377.057a.6.6,0,0,0,.145-.4.5.5,0,0,0-.145-.37c-.1-.094-.223-.066-.377.086Zm0,3.7h.7v-.569h-.7Zm.7,8.145v-.626h-.7v.626Zm-.7,5.638h.7v-.626h-.7Zm0,1.2h.7v-.626h-.7Zm.7,2.506a1.128,1.128,0,0,0-.348.057.527.527,0,0,0-.348.57,1.116,1.116,0,0,0,.348-.057A.525.525,0,0,0,380.664,349.91Zm.588-28.7a1.534,1.534,0,0,0-.928.171c-.116.114-.136.209-.058.285s.222.1.435.057A.835.835,0,0,0,381.252,321.206Zm.05-1.253a1.133,1.133,0,0,0-.348.057c-.194.076-.29.266-.29.57a.96.96,0,0,0,.29-.057A.525.525,0,0,0,381.3,319.953Zm-.637,3.759q.231.456.348.427c.077-.019.116-.086.116-.2a.489.489,0,0,0-.116-.313Q380.895,323.485,380.664,323.712Zm1.275-4.385a.325.325,0,0,0,.318-.171.427.427,0,0,0,.029-.342.437.437,0,0,0-.29-.256.965.965,0,0,0-.7.142c0,.3.029.484.087.541A1,1,0,0,0,381.94,319.327Zm1.854,1.879c0-.3-.107-.456-.319-.456s-.319.153-.319.456Zm-.638,2.506q.232.456.348.427c.077-.019.116-.086.116-.2a.486.486,0,0,0-.116-.313Q383.387,323.485,383.156,323.712Zm0,3.132h1.275a4.314,4.314,0,0,0-.087-.912.493.493,0,0,0-.551-.4q.231.229.173.285a.617.617,0,0,1-.232.114,1.181,1.181,0,0,0-.376.228A.875.875,0,0,0,383.156,326.845Zm.638-4.385v.626c.154.152.27.171.347.057a.694.694,0,0,0,.116-.4.571.571,0,0,0-.116-.37Q384.025,322.232,383.794,322.459Zm1.333,1.253h-.7a1.116,1.116,0,0,0,.2.712c.135.171.261.256.377.256s.2-.085.261-.256a.979.979,0,0,0-.145-.712h.637v-.627a1,1,0,0,0-.551.086A.957.957,0,0,0,385.127,323.712Zm.637,3.132a.873.873,0,0,1-.9.313q-.434-.141-.435.313a.224.224,0,0,1,.2-.256,3.367,3.367,0,0,1,.463-.028,1.708,1.708,0,0,0,.464-.057A.264.264,0,0,0,385.765,326.845Zm-.637,1.253a1.13,1.13,0,0,0-.348.057.527.527,0,0,0-.348.57,1.175,1.175,0,0,0,.609-.085C385.1,328.582,385.127,328.4,385.127,328.1Zm1.217-.626a.664.664,0,0,0-.29.057q-.29.114-.29.57a.958.958,0,0,0,.29-.057C386.247,327.965,386.344,327.775,386.344,327.471Zm.637,1.253q.463,0,.464-.626t-.464-.626Zm.637,3.132h-.637c.309,0,.493.077.551.228S387.619,332.161,387.619,331.856Zm.638-1.936q.463-.455.9-.912a1.336,1.336,0,0,0,.435-.911h-1.333Zm0,3.132h.637v-.627h-.637Zm.637-1.2h.7a.957.957,0,0,0-.087-.541,1.177,1.177,0,0,0-.609-.085Zm0,2.449h.7v-.627h-.7Zm1.912,0a.993.993,0,0,0-.55.086.28.28,0,1,0,.2.483A.524.524,0,0,0,390.807,334.305Zm0-1.253q.231.456.348.341a.561.561,0,0,0,0-.683Q391.038,332.6,390.807,333.052Zm0,3.759q.463,0,.232-.228T390.807,336.811Zm.638-4.955q.23.457.348.427c.077-.018.116-.085.116-.2a.487.487,0,0,0-.116-.313C391.714,331.676,391.6,331.705,391.445,331.856Zm0,3.759c.153,0,.241-.028.261-.085a.189.189,0,0,0-.029-.171.094.094,0,0,0-.145-.028C391.474,335.368,391.445,335.464,391.445,335.615Zm1.854-3.19h-1.217q-.232.229-.087.342a.69.69,0,0,0,.435.114,1.562,1.562,0,0,0,.58-.114Q393.3,332.654,393.3,332.425Zm-1.217,1.88h.637v-.627h-.637Zm.637,1.879h.58v-.57h-.58Zm1.913,1.879h.638v-.626h-.638Zm.638,3.132q-.465,0-.522.2a.473.473,0,0,0,.117.427,1.8,1.8,0,0,0,.492.427,1.079,1.079,0,0,0,.551.2,1,1,0,0,0,.173-.626.346.346,0,0,0-.232-.228c-.116-.037-.242-.076-.377-.114a.263.263,0,0,1-.2-.285h.637v-.626a1,1,0,0,0-.551.085C395.3,340.712,395.27,340.893,395.27,341.2Zm.637-5.012a1.127,1.127,0,0,0-.348.057c-.194.077-.29.266-.29.57a.975.975,0,0,0,.29-.057A.525.525,0,0,0,395.908,336.185Zm0,2.506h.637c0-.3-.029-.484-.087-.541a1,1,0,0,0-.55-.085Zm1.217,2.506v.626q.463,0,.579-.285a1.067,1.067,0,0,0,.058-.342c.347-.151.54-.3.58-.456a.648.648,0,0,0-.087-.484,4.281,4.281,0,0,0-.318-.484.819.819,0,0,1-.174-.512h-1.854a.726.726,0,0,0,.29.683,4.807,4.807,0,0,0,.637.313,4.956,4.956,0,0,1,.637.313.666.666,0,0,1,.29.626Zm-.58,2.449c.308.341.512.5.609.484s.125-.094.087-.228a.636.636,0,0,0-.261-.341C396.844,343.466,396.7,343.494,396.545,343.645Zm.58-.626h.637v-.57h-.637Zm.637,2.563a.956.956,0,0,0-.087-.541,1,1,0,0,0-.551-.086,1.053,1.053,0,0,0,.058.342C397.259,345.487,397.452,345.582,397.762,345.582Zm.7.626h.637v-.626h-.637Zm.637-1.879c0,.456.029.655.087.6a.767.767,0,0,0,.145-.37,1.6,1.6,0,0,0,.029-.513C399.336,343.893,399.249,343.987,399.1,344.329Zm1.217,3.7v.683h1.913v.627h-.638v.569c.309,0,.5-.095.58-.285a.641.641,0,0,0,.058-.285,1.145,1.145,0,0,0,.754-.2.535.535,0,0,0,.232-.37c0-.114-.078-.189-.232-.228a1.37,1.37,0,0,0-.754.171.882.882,0,0,0-.2-.683.784.784,0,0,0-.522-.171,2.432,2.432,0,0,0-.637.086,2.186,2.186,0,0,1-.551.085q.231-.227.087-.37a.852.852,0,0,0-.435-.2,5.594,5.594,0,0,0-.869-.057,4.635,4.635,0,0,0,.609.541A1.392,1.392,0,0,0,400.312,348.031Zm0-5.012a1.392,1.392,0,0,0-.869.171c-.116.114-.136.219-.058.313a.393.393,0,0,0,.406.086Q400.08,343.533,400.312,343.019Zm0-1.2a.664.664,0,0,0-.29.057c-.193.077-.29.266-.29.57q.464,0,.522-.085A1.387,1.387,0,0,0,400.312,341.823Zm1.275,4.385h-1.854a.693.693,0,0,0,.2.6,1.255,1.255,0,0,0,.492.2q.29.058.609.114a1.034,1.034,0,0,1,.55.285v-1.2h.638v-.626a.994.994,0,0,0-.551.086A.953.953,0,0,0,401.587,346.208Zm-1.275-.626q.463.228.7.086a.459.459,0,0,0,0-.8q-.232-.141-.7.085Zm1.275-1.253c0,.3.029.484.087.541a1,1,0,0,0,.551.085.953.953,0,0,0-.087-.541,1,1,0,0,0-.551-.086q-.232-.513-.521-.569a.4.4,0,0,0-.406.085c-.078.1-.058.2.058.313A1.393,1.393,0,0,0,401.587,344.329Zm1.333,5.581a1.127,1.127,0,0,0-.347.057.526.526,0,0,0-.348.57,1.118,1.118,0,0,0,.348-.057A.525.525,0,0,0,402.92,349.91Zm0,2.506a3.827,3.827,0,0,0,.841-.085.481.481,0,0,0,.376-.541,2.173,2.173,0,0,1-.55-.085,2.193,2.193,0,0,0-.551-.086.325.325,0,0,0-.319.171Q402.631,351.961,402.92,352.416Zm0-33.089h1.217a4.323,4.323,0,0,1,.087-1.139,2.449,2.449,0,0,1,.55-.683,1.839,1.839,0,0,1-.724-.114,2.858,2.858,0,0,1-.435-.228c-.116-.076-.223-.151-.319-.228a.6.6,0,0,0-.377-.114,4.1,4.1,0,0,0,.087,1c.058.209.106.38.145.513a.833.833,0,0,1,.029.37A2.84,2.84,0,0,1,402.92,319.327Zm0,1.253q.231.228.348.085a.743.743,0,0,0,0-.8q-.117-.141-.348.085Zm.637,1.879h-.637v.626a1,1,0,0,0,.551-.085c.058-.057.087-.236.087-.541q.464.228.7.057a.539.539,0,0,0,.232-.456.908.908,0,0,0-.232-.569.845.845,0,0,0-.7-.285Zm-.637,1.879h.637v-.626h-.637Zm0,3.133c.154.152.27.17.348.057a.692.692,0,0,0,.116-.4.571.571,0,0,0-.116-.37q-.117-.141-.348.086Zm.637,1.253q0,.683.2.769a.645.645,0,0,0,.492-.028q.289-.114.609-.257a.459.459,0,0,1,.551.086q0-.455-.7-.513t-1.159-.057V328.1h-.637c0,.3.029.484.087.541A1,1,0,0,0,403.558,328.724Zm-.637,3.132h1.854a.881.881,0,0,0-.2-.684,1.078,1.078,0,0,0-.493-.227q-.291-.056-.609-.086a.783.783,0,0,1-.551-.313Zm0,2.449h.637v-.627h-.637Zm0,1.879a2.859,2.859,0,0,1,.261.626.57.57,0,0,1-.029.313c-.039.1-.087.2-.145.313a1.547,1.547,0,0,0-.087.626.6.6,0,0,0,.609-.313.6.6,0,0,1,.608-.313,4.76,4.76,0,0,1,.116-1,3.569,3.569,0,0,1,.348-.968,1.309,1.309,0,0,1,.609-.6.953.953,0,0,1,.84.057q0-.455-.725-.541a10.478,10.478,0,0,0-1.188-.086,5.131,5.131,0,0,1-.145,1.424Q403.848,336.185,402.92,336.185Zm.637-1.253-.347.114a.608.608,0,0,0-.29.57.291.291,0,0,0,.29-.057Q403.558,335.445,403.558,334.932Zm0,4.328v.683h.58a1.637,1.637,0,0,0-.058-.6q-.058-.085-.522-.085v-.57h-.637c0,.3.029.475.087.512A1.431,1.431,0,0,0,403.558,339.26Zm-.637,4.385a3.736,3.736,0,0,0,.406.341,1.445,1.445,0,0,0,.811.342,1.028,1.028,0,0,1-.145-.74.7.7,0,0,1,.261-.4.854.854,0,0,1,.521-.171,3.606,3.606,0,0,0-.087-.826c-.058-.246-.242-.37-.551-.37a.791.791,0,0,1-.2.626,2.644,2.644,0,0,1-.406.285,2.638,2.638,0,0,0-.406.285A.788.788,0,0,0,402.92,343.645Zm.637-1.823a1.127,1.127,0,0,0-.347.057c-.194.077-.29.266-.29.57a.974.974,0,0,0,.29-.057A.525.525,0,0,0,403.558,341.823Zm-.637,3.759h.637v-.626h-.637Zm0,1.2h.637v-.57h-.637Zm.637-20.616h.58v-.627h-.58Zm0,6.891h.58v-.627h-.58Zm0,18.111a3.8,3.8,0,0,0,.841-.086.48.48,0,0,0,.376-.541h-1.217Zm.58-29.957h1.913c0-.3-.068-.484-.2-.541a1.113,1.113,0,0,0-.435-.085,1.1,1.1,0,0,1-.435-.086c-.136-.057-.2-.237-.2-.541a1,1,0,0,0,.551-.085c.058-.057.087-.237.087-.541a.95.95,0,0,0-.058-.285.538.538,0,0,0-.58-.342,2.582,2.582,0,0,1-.087.741,2.069,2.069,0,0,1-.232.512,2.087,2.087,0,0,0-.232.513A2.608,2.608,0,0,0,404.137,321.206Zm0,2.506h.637c0-.3-.028-.484-.087-.541a1,1,0,0,0-.551-.086Zm0,21.869h.637v-.626h-.637Zm0,.626q.231.457.348.427c.077-.018.116-.085.116-.2a.488.488,0,0,0-.116-.313Q404.369,345.982,404.137,346.208Zm0,2.506q.231.457.348.313a.569.569,0,0,0,.116-.37.462.462,0,0,0-.116-.341Q404.369,348.2,404.137,348.714Zm1.913-23.18c0,.3-.029.484-.087.541a1,1,0,0,1-.551.086,1.459,1.459,0,0,1,.464.768.759.759,0,0,1-.145.456.619.619,0,0,0-.145.341c0,.1.154.219.463.37q-.232-.455-.058-.626a.913.913,0,0,1,.492-.228c.212-.037.415-.076.609-.114s.29-.133.29-.285q-.522.228-.7.057a.883.883,0,0,1-.232-.484q-.058-.312-.116-.6c-.039-.189-.136-.285-.29-.285v-.569a2.161,2.161,0,0,1-.551-.086,2.186,2.186,0,0,0-.551-.085.344.344,0,0,0-.318.143c-.058.095-.01.295.145.6Zm-1.275-3.075h.638v-.684h-.638Zm.638,22.5a3.905,3.905,0,0,0-.087-1.139q-.087-.171-.551-.171a3.452,3.452,0,0,0,.058.683C404.91,344.747,405.1,344.955,405.413,344.955Zm-.638,3.759h.638v-.683h-.638Zm1.275-7.518c-.31-.151-.512-.171-.609-.057a.51.51,0,0,0-.087.456,1.472,1.472,0,0,0,.261.57.554.554,0,0,0,.435.285V341.2h.637v-.626a1,1,0,0,0-.551.085C406.079,340.712,406.05,340.893,406.05,341.2Zm0-24.375-.347.114a.607.607,0,0,0-.29.57.291.291,0,0,0,.29-.057C405.935,317.372,406.05,317.163,406.05,316.821Zm-.637,6.891q.231.456.348.427c.077-.019.116-.086.116-.2a.488.488,0,0,0-.116-.313Q405.643,323.485,405.413,323.712Zm0,8.713h.637v-1.2a.291.291,0,0,0,.29-.057q.348-.113.347-.626h-1.275Zm0,13.156q.231.457.348.428c.077-.019.116-.086.116-.2a.488.488,0,0,0-.116-.313C405.682,345.4,405.567,345.431,405.413,345.582Zm.637,4.955a3.632,3.632,0,0,0-.087-.826q-.088-.37-.551-.37a2.64,2.64,0,0,0,.058.626Q405.586,350.537,406.05,350.537Zm1.333-29.33a6.825,6.825,0,0,0-.927.057.448.448,0,0,0-.406.512Zm-.7,1.879a.957.957,0,0,0-.087-.541,1,1,0,0,0-.551-.085,1.055,1.055,0,0,0,.058.342C406.185,322.991,406.378,323.085,406.688,323.085Zm-.637,6.835q.463,0,.232-.228T406.05,329.92Zm0,3.758h.637v-.626h-.637Zm.637,2.506a1.126,1.126,0,0,0-.347.057c-.194.077-.29.266-.29.57a1,1,0,0,0,.551-.085C406.659,336.669,406.688,336.489,406.688,336.185Zm.7,6.834a4.537,4.537,0,0,0-.927.085.486.486,0,0,0-.406.541,4.664,4.664,0,0,0,.9-.085A.493.493,0,0,0,407.383,343.019Zm-.7,5.012a4.017,4.017,0,0,0-.087-.854.493.493,0,0,0-.551-.4,4,4,0,0,0,.087.854A.492.492,0,0,0,406.688,348.031Zm-.087,3.531a.493.493,0,0,0-.551-.4,1.63,1.63,0,0,0,.058.4,1.685,1.685,0,0,0,.579.854A4.016,4.016,0,0,0,406.6,351.562Zm.087-7.233q-.232-.227-.347-.085a.483.483,0,0,0-.116.313c0,.114.038.18.116.2S406.533,344.633,406.688,344.329Zm0-23.749h.7v-.627h-.7Zm.7,4.385a4.017,4.017,0,0,0-.087-.854c-.058-.265-.261-.4-.609-.4a4.011,4.011,0,0,0,.087.854Q406.862,324.965,407.383,324.965Zm-.7,3.759h.7V328.1h-.7Zm0,11.22h.7a.562.562,0,0,1-.232-.57c.038-.228.077-.436.116-.626a.8.8,0,0,0-.029-.484q-.087-.2-.551-.2.522.456.261.912A1.912,1.912,0,0,0,406.688,339.944Zm0,6.265q.232.457.377.427a.176.176,0,0,0,.145-.2.435.435,0,0,0-.145-.313Q406.919,345.982,406.688,346.208Zm0,3.133h.7a.96.96,0,0,0-.087-.542,1.179,1.179,0,0,0-.609-.085Zm.7,1.2q0-.455-.348-.456t-.348.456Zm0-5.581q0,.683.087.6a.823.823,0,0,0,.145-.4,1.645,1.645,0,0,0,.029-.512Q407.614,344.443,407.383,344.955Z" transform="translate(-285.322 -313.29)"/><path class="a" d="M470.9,314.941q2.376,2.849,4.666,5.838t4.607,6.037q2.318,3.048,4.724,6.066t5.013,5.809q0-2.79-.174-5.895t-.2-6.208q-.031-3.1.145-6.094a27.243,27.243,0,0,1,.869-5.553q1.913,0,4.173.085a20.581,20.581,0,0,1,4.115.542V354.3a5.86,5.86,0,0,1-1.627.256q-.929.028-1.887-.028t-1.859-.142q-.9-.086-1.6-.086a77.361,77.361,0,0,1-5.46-5.809q-2.557-3.018-5-6.122t-4.879-6.237q-2.44-3.131-5.111-6.207,0,6.15.232,12.416a101.447,101.447,0,0,1-.232,11.96h-8.81V315.568a10.4,10.4,0,0,1,4.116-1A15.769,15.769,0,0,1,470.9,314.941Zm-5.1,6.834q0-.8-.058-1.367a1.727,1.727,0,0,0-.2-.684q-.145-.227-.377.228.231,0,.087.285a4.688,4.688,0,0,0-.261.626.869.869,0,0,0,0,.626C465.07,321.681,465.34,321.776,465.8,321.776Zm-.174,6.322a.7.7,0,0,1,.232-.313c.116-.094.241-.2.377-.313a.789.789,0,0,0,.2-.626.735.735,0,0,0-.811.028,1.384,1.384,0,0,0-.492.655,1.127,1.127,0,0,0,0,.8.626.626,0,0,0,.666.4A.993.993,0,0,1,465.63,328.1Zm-.464-3.759h.637c0-.3-.028-.483-.087-.541a1,1,0,0,0-.551-.085Zm0,10.594q.231.457.348.342a.563.563,0,0,0,0-.684Q465.4,334.476,465.166,334.932Zm0,8.714c.309,0,.386-.076.232-.228S465.166,343.342,465.166,343.645Zm0,3.759h.637v-.626h-.637Zm0,2.506q.231.457.348.342a.563.563,0,0,0,0-.683Q465.4,349.455,465.166,349.91Zm.637-30.583h.637V318.7H465.8Zm0,21.869h.637v-.626H465.8Zm1.246-6.265h-.637a2.238,2.238,0,0,1-.087.6,2.242,2.242,0,0,0-.087.6.708.708,0,0,0,.174.484.817.817,0,0,0,.637.2v-1.879h.637a1.451,1.451,0,0,0,.058-1.054c-.116-.247-.252-.37-.406-.37s-.281.124-.376.37A1.6,1.6,0,0,0,467.05,334.932Zm-.642,3.759h.551a2.343,2.343,0,0,0,.55-.057.486.486,0,0,0,.319-.2c.058-.095.009-.218-.145-.37h-1.275Zm.033-18.111h.638v-.627h-.638Zm0,4.385h.638v-.627h-.638Zm0,14.978h.638v-.683h-.638Zm.638,1.879a1.127,1.127,0,0,0-.347.057c-.194.077-.291.266-.291.57a1,1,0,0,0,.551-.085C467.05,342.307,467.079,342.127,467.079,341.823Zm0,1.2a1.127,1.127,0,0,0-.347.057c-.194.077-.291.266-.291.57a1,1,0,0,0,.551-.085C467.05,343.5,467.079,343.324,467.079,343.019Zm-.638,3.759h.638v-.57h-.638Zm.638-28.078v.627c.309,0,.5-.094.58-.285a1.064,1.064,0,0,0,.058-.342h.58v-.569a1.194,1.194,0,0,0-.521.057,1.127,1.127,0,0,0-.058.512Zm0,11.847q.464.286.7.114a.459.459,0,0,0,0-.8q-.232-.17-.7.057Zm.637,6.265a1.126,1.126,0,0,0-.347.057c-.194.076-.29.266-.29.57,0-.152.029-.237.087-.257a.785.785,0,0,1,.232-.028.417.417,0,0,0,.232-.057C467.688,337.058,467.716,336.963,467.716,336.811Zm-.637,8.77h.637v-.626h-.637Zm.6,3.759q0,.456.174.512a.263.263,0,0,0,.29-.057.255.255,0,0,0,.058-.285q-.058-.17-.521-.17v-.627c-.155-.151-.271-.18-.348-.085a.566.566,0,0,0-.116.37.689.689,0,0,0,.116.4C467.412,349.511,467.528,349.493,467.683,349.341Zm0-13.156c.154.152.261.18.319.085a.833.833,0,0,0,0-.74c-.058-.094-.165-.066-.319.085Zm.613-7.461a.661.661,0,0,0-.29.057.488.488,0,0,0-.29.513.961.961,0,0,0,.29-.057A.487.487,0,0,0,468.3,328.724Zm-.58,3.7h.58v-.569h-.58Zm0,8.145h.58v-1.31h-.58Zm.58,9.967a.661.661,0,0,0-.29.057c-.194.076-.29.266-.29.569a.958.958,0,0,0,.29-.057C468.2,351.03,468.3,350.841,468.3,350.537Zm.6-24.375h-.637v.683a1,1,0,0,0,.55-.086q.087-.085.087-.6h.7v-.541a1.521,1.521,0,0,0-.087-.541.458.458,0,0,0-.232-.285q-.146-.056-.377.171Zm-.633,3.759a.877.877,0,0,1,.9-.313c.29.1.435-.008.435-.313a4.535,4.535,0,0,0-.927.085A.486.486,0,0,0,468.259,329.92Zm0,15.035q.463-.455.637-.228a.842.842,0,0,0,.7.228v-.626a4.5,4.5,0,0,0-.927.086A.486.486,0,0,0,468.259,344.955Zm.674-25.628a1.126,1.126,0,0,0-.347.057c-.194.076-.29.266-.29.569a.958.958,0,0,0,.29-.057A.524.524,0,0,0,468.933,319.327Zm-.637,5.011h.637v-.626H468.3Zm0,6.892h.637v-.683H468.3Zm0,3.7h.637v-.626H468.3Zm.348,6.976a.745.745,0,0,0,0-.8c-.078-.095-.194-.066-.348.085v.626Q468.527,342.052,468.644,341.908Zm.29-25.087c.154.341.28.5.377.483s.145-.094.145-.227a.467.467,0,0,0-.145-.342Q469.165,316.594,468.933,316.821Zm0,11.9c.154.152.28.17.377.057a.6.6,0,0,0,.145-.4.5.5,0,0,0-.145-.37q-.146-.141-.377.086Zm0,3.7h.7v-.569h-.7Zm.7,8.145v-.626h-.7v.626Zm-.7,5.638h.7v-.626h-.7Zm0,1.2h.7v-.626h-.7Zm.7,2.506a1.13,1.13,0,0,0-.348.057.527.527,0,0,0-.348.57,1.115,1.115,0,0,0,.348-.057A.525.525,0,0,0,469.629,349.91Zm.588-28.7a1.531,1.531,0,0,0-.927.171c-.116.114-.136.209-.058.285s.222.1.435.057A.835.835,0,0,0,470.217,321.206Zm.05-1.253a1.133,1.133,0,0,0-.348.057c-.193.076-.29.266-.29.57a.958.958,0,0,0,.29-.057A.525.525,0,0,0,470.267,319.953Zm-.638,3.759q.231.456.348.427c.077-.019.116-.086.116-.2a.489.489,0,0,0-.116-.313Q469.86,323.485,469.629,323.712Zm1.275-4.385a.325.325,0,0,0,.318-.171.428.428,0,0,0,.029-.342.437.437,0,0,0-.29-.256.963.963,0,0,0-.7.142c0,.3.028.484.087.541A.993.993,0,0,0,470.9,319.327Zm1.854,1.879c0-.3-.107-.456-.318-.456s-.319.153-.319.456Zm-.637,2.506q.231.456.347.427c.077-.019.116-.086.116-.2a.486.486,0,0,0-.116-.313Q472.352,323.485,472.122,323.712Zm0,3.132H473.4a4.314,4.314,0,0,0-.087-.912.493.493,0,0,0-.551-.4q.231.229.174.285a.62.62,0,0,1-.232.114,1.18,1.18,0,0,0-.376.228A.875.875,0,0,0,472.122,326.845Zm.637-4.385v.626c.154.152.27.171.347.057a.694.694,0,0,0,.116-.4.571.571,0,0,0-.116-.37Q472.99,322.232,472.759,322.459Zm1.333,1.253h-.7a1.117,1.117,0,0,0,.2.712c.135.171.261.256.377.256s.2-.085.261-.256a.976.976,0,0,0-.145-.712h.637v-.627a1,1,0,0,0-.551.086A.957.957,0,0,0,474.092,323.712Zm.637,3.132a.873.873,0,0,1-.9.313q-.434-.141-.434.313a.224.224,0,0,1,.2-.256,3.372,3.372,0,0,1,.464-.028,1.708,1.708,0,0,0,.464-.057A.264.264,0,0,0,474.73,326.845Zm-.637,1.253a1.13,1.13,0,0,0-.348.057.527.527,0,0,0-.347.57,1.174,1.174,0,0,0,.608-.085C474.063,328.582,474.092,328.4,474.092,328.1Zm1.217-.626a.664.664,0,0,0-.29.057q-.29.114-.29.57a.955.955,0,0,0,.29-.057Q475.309,327.927,475.309,327.471Zm.637,1.253q.463,0,.463-.626t-.463-.626Zm.637,3.132h-.637c.309,0,.493.077.551.228S476.584,332.161,476.584,331.856Zm.638-1.936q.463-.455.9-.912a1.336,1.336,0,0,0,.435-.911h-1.333Zm0,3.132h.637v-.627h-.637Zm.637-1.2h.7a.957.957,0,0,0-.087-.541,1.177,1.177,0,0,0-.609-.085Zm0,2.449h.7v-.627h-.7Zm1.912,0a.993.993,0,0,0-.55.086.28.28,0,1,0,.2.483A.524.524,0,0,0,479.772,334.305Zm0-1.253q.232.456.348.341a.561.561,0,0,0,0-.683Q480,332.6,479.772,333.052Zm0,3.759q.464,0,.232-.228T479.772,336.811Zm.638-4.955q.231.457.348.427c.077-.018.116-.085.116-.2a.485.485,0,0,0-.116-.313C480.679,331.676,480.564,331.705,480.41,331.856Zm0,3.759q.231,0,.261-.085a.189.189,0,0,0-.029-.171.094.094,0,0,0-.145-.028C480.439,335.368,480.41,335.464,480.41,335.615Zm1.854-3.19h-1.217c-.155.152-.184.267-.087.342a.687.687,0,0,0,.435.114,1.563,1.563,0,0,0,.58-.114Q482.264,332.654,482.264,332.425Zm-1.217,1.88h.637v-.627h-.637Zm.637,1.879h.58v-.57h-.58Zm1.913,1.879h.638v-.626H483.6Zm.638,3.132q-.465,0-.522.2a.473.473,0,0,0,.117.427,1.8,1.8,0,0,0,.492.427,1.079,1.079,0,0,0,.551.2,1,1,0,0,0,.174-.626.346.346,0,0,0-.232-.228c-.116-.037-.242-.076-.377-.114a.263.263,0,0,1-.2-.285h.637v-.626a1,1,0,0,0-.551.085C484.264,340.712,484.235,340.893,484.235,341.2Zm.637-5.012a1.129,1.129,0,0,0-.348.057c-.194.077-.29.266-.29.57a.971.971,0,0,0,.29-.057A.525.525,0,0,0,484.873,336.185Zm0,2.506h.637c0-.3-.029-.484-.087-.541a1,1,0,0,0-.55-.085Zm1.217,2.506v.626q.463,0,.58-.285a1.079,1.079,0,0,0,.058-.342c.348-.151.541-.3.58-.456a.65.65,0,0,0-.087-.484,4.344,4.344,0,0,0-.319-.484.819.819,0,0,1-.174-.512h-1.854a.727.727,0,0,0,.29.683,4.808,4.808,0,0,0,.637.313,4.956,4.956,0,0,1,.637.313.665.665,0,0,1,.29.626Zm-.58,2.449c.309.341.512.5.608.484s.125-.094.087-.228a.636.636,0,0,0-.261-.341C485.809,343.466,485.664,343.494,485.51,343.645Zm.58-.626h.637v-.57h-.637Zm.637,2.563a.956.956,0,0,0-.087-.541,1,1,0,0,0-.551-.086,1.053,1.053,0,0,0,.058.342C486.225,345.487,486.418,345.582,486.727,345.582Zm.7.626h.637v-.626h-.637Zm.637-1.879c0,.456.029.655.087.6a.767.767,0,0,0,.145-.37,1.6,1.6,0,0,0,.029-.513C488.3,343.893,488.214,343.987,488.06,344.329Zm1.217,3.7v.683h1.913v.627h-.638v.569c.309,0,.5-.095.58-.285a.634.634,0,0,0,.058-.285,1.145,1.145,0,0,0,.754-.2.535.535,0,0,0,.232-.37c0-.114-.078-.189-.232-.228a1.37,1.37,0,0,0-.754.171.88.88,0,0,0-.2-.683.783.783,0,0,0-.522-.171,2.432,2.432,0,0,0-.637.086,2.186,2.186,0,0,1-.551.085q.231-.227.087-.37a.852.852,0,0,0-.435-.2,5.594,5.594,0,0,0-.869-.057,4.635,4.635,0,0,0,.609.541A1.392,1.392,0,0,0,489.277,348.031Zm0-5.012a1.392,1.392,0,0,0-.869.171c-.116.114-.136.219-.058.313a.393.393,0,0,0,.406.086Q489.046,343.533,489.277,343.019Zm0-1.2a.66.66,0,0,0-.29.057c-.194.077-.29.266-.29.57q.463,0,.522-.085A1.386,1.386,0,0,0,489.277,341.823Zm1.275,4.385H488.7a.692.692,0,0,0,.2.6,1.252,1.252,0,0,0,.492.2q.289.058.609.114a1.032,1.032,0,0,1,.55.285v-1.2h.638v-.626a.994.994,0,0,0-.551.086A.953.953,0,0,0,490.552,346.208Zm-1.275-.626q.463.228.7.086a.458.458,0,0,0,0-.8q-.232-.141-.7.085Zm1.275-1.253c0,.3.029.484.087.541a1,1,0,0,0,.551.085q0-.455-.087-.541a1,1,0,0,0-.551-.086q-.232-.513-.521-.569a.4.4,0,0,0-.406.085c-.078.1-.058.2.058.313A1.393,1.393,0,0,0,490.552,344.329Zm1.333,5.581a1.127,1.127,0,0,0-.347.057.527.527,0,0,0-.348.57,1.116,1.116,0,0,0,.348-.057A.525.525,0,0,0,491.885,349.91Zm0,2.506a3.827,3.827,0,0,0,.841-.085.481.481,0,0,0,.376-.541,2.173,2.173,0,0,1-.55-.085,2.193,2.193,0,0,0-.551-.086.325.325,0,0,0-.319.171Q491.6,351.961,491.885,352.416Zm0-33.089H493.1a4.323,4.323,0,0,1,.087-1.139,2.443,2.443,0,0,1,.551-.683,1.84,1.84,0,0,1-.725-.114,2.884,2.884,0,0,1-.435-.228c-.116-.076-.223-.151-.319-.228a.593.593,0,0,0-.377-.114,4.067,4.067,0,0,0,.087,1q.087.314.145.513a.832.832,0,0,1,.028.37A2.789,2.789,0,0,1,491.885,319.327Zm0,1.253q.232.228.348.085a.743.743,0,0,0,0-.8q-.117-.141-.348.085Zm.638,1.879h-.638v.626a1.006,1.006,0,0,0,.551-.085c.058-.057.087-.236.087-.541q.463.228.7.057a.539.539,0,0,0,.232-.456.908.908,0,0,0-.232-.569.845.845,0,0,0-.7-.285Zm-.638,1.879h.638v-.626h-.638Zm0,3.133c.155.152.27.17.348.057a.693.693,0,0,0,.116-.4.572.572,0,0,0-.116-.37q-.117-.141-.348.086Zm.638,1.253c0,.456.067.712.2.769a.645.645,0,0,0,.492-.028q.289-.114.609-.257a.459.459,0,0,1,.551.086q0-.455-.7-.513t-1.159-.057V328.1h-.638c0,.3.029.484.087.541A1,1,0,0,0,492.523,328.724Zm-.638,3.132h1.855a.881.881,0,0,0-.2-.684,1.075,1.075,0,0,0-.493-.227c-.193-.037-.4-.066-.608-.086a.784.784,0,0,1-.551-.313Zm0,2.449h.638v-.627h-.638Zm0,1.879a2.807,2.807,0,0,1,.261.626.57.57,0,0,1-.028.313c-.039.1-.087.2-.145.313a1.535,1.535,0,0,0-.087.626.6.6,0,0,0,.609-.313.6.6,0,0,1,.608-.313,4.76,4.76,0,0,1,.116-1,3.582,3.582,0,0,1,.348-.968,1.309,1.309,0,0,1,.609-.6.953.953,0,0,1,.84.057q0-.455-.724-.541a10.485,10.485,0,0,0-1.189-.086,5.128,5.128,0,0,1-.145,1.424Q492.813,336.185,491.885,336.185Zm.638-1.253-.348.114a.608.608,0,0,0-.29.57.291.291,0,0,0,.29-.057Q492.523,335.445,492.523,334.932Zm0,4.328v.683h.579a1.626,1.626,0,0,0-.058-.6q-.058-.085-.521-.085v-.57h-.638c0,.3.029.475.087.512A1.428,1.428,0,0,0,492.523,339.26Zm-.638,4.385a3.736,3.736,0,0,0,.406.341,1.445,1.445,0,0,0,.811.342,1.029,1.029,0,0,1-.145-.74.7.7,0,0,1,.261-.4.854.854,0,0,1,.522-.171,3.607,3.607,0,0,0-.087-.826c-.058-.246-.242-.37-.551-.37a.789.789,0,0,1-.2.626,2.647,2.647,0,0,1-.406.285,2.636,2.636,0,0,0-.406.285A.788.788,0,0,0,491.885,343.645Zm.638-1.823a1.128,1.128,0,0,0-.348.057c-.194.077-.29.266-.29.57a.974.974,0,0,0,.29-.057A.525.525,0,0,0,492.523,341.823Zm-.638,3.759h.638v-.626h-.638Zm0,1.2h.638v-.57h-.638Zm.638-20.616h.579v-.627h-.579Zm0,6.891h.579v-.627h-.579Zm0,18.111a3.8,3.8,0,0,0,.84-.086.481.481,0,0,0,.377-.541h-1.217Zm.579-29.957h1.913c0-.3-.068-.484-.2-.541a1.113,1.113,0,0,0-.435-.085,1.1,1.1,0,0,1-.435-.086c-.136-.057-.2-.237-.2-.541a1,1,0,0,0,.551-.085c.058-.057.087-.237.087-.541a.948.948,0,0,0-.058-.285.538.538,0,0,0-.58-.342,2.581,2.581,0,0,1-.087.741,2.068,2.068,0,0,1-.232.512,2.086,2.086,0,0,0-.232.513A2.608,2.608,0,0,0,493.1,321.206Zm0,2.506h.638c0-.3-.029-.484-.087-.541a1,1,0,0,0-.551-.086Zm0,21.869h.638v-.626H493.1Zm0,.626q.231.457.348.427c.077-.018.116-.085.116-.2a.485.485,0,0,0-.116-.313Q493.334,345.982,493.1,346.208Zm0,2.506q.231.457.348.313a.567.567,0,0,0,.116-.37.46.46,0,0,0-.116-.341Q493.334,348.2,493.1,348.714Zm1.913-23.18c0,.3-.029.484-.087.541a1,1,0,0,1-.551.086,1.461,1.461,0,0,1,.464.768.763.763,0,0,1-.145.456.617.617,0,0,0-.145.341c0,.1.154.219.463.37q-.232-.455-.058-.626a.913.913,0,0,1,.492-.228q.318-.056.609-.114c.193-.037.29-.133.29-.285q-.522.228-.7.057a.88.88,0,0,1-.232-.484q-.058-.312-.116-.6c-.039-.189-.136-.285-.29-.285v-.569a2.161,2.161,0,0,1-.551-.086,2.183,2.183,0,0,0-.551-.085.344.344,0,0,0-.318.143c-.058.095-.01.295.145.6Zm-1.275-3.075h.637v-.684h-.637Zm.637,22.5a3.931,3.931,0,0,0-.087-1.139q-.087-.171-.551-.171a3.453,3.453,0,0,0,.058.683C493.875,344.747,494.068,344.955,494.378,344.955Zm-.637,3.759h.637v-.683h-.637Zm1.275-7.518c-.309-.151-.512-.171-.609-.057a.51.51,0,0,0-.087.456,1.48,1.48,0,0,0,.261.57.554.554,0,0,0,.435.285V341.2h.638v-.626a1,1,0,0,0-.551.085C495.044,340.712,495.015,340.893,495.015,341.2Zm0-24.375-.347.114a.607.607,0,0,0-.29.57.291.291,0,0,0,.29-.057C494.9,317.372,495.015,317.163,495.015,316.821Zm-.637,6.891q.231.456.348.427c.077-.019.116-.086.116-.2a.486.486,0,0,0-.116-.313Q494.608,323.485,494.378,323.712Zm0,8.713h.637v-1.2a.291.291,0,0,0,.29-.057q.348-.113.348-.626h-1.275Zm0,13.156q.231.457.348.428t.116-.2a.486.486,0,0,0-.116-.313C494.647,345.4,494.532,345.431,494.378,345.582Zm.637,4.955a3.63,3.63,0,0,0-.087-.826q-.087-.37-.551-.37a2.608,2.608,0,0,0,.058.626Q494.55,350.537,495.015,350.537Zm1.333-29.33a6.824,6.824,0,0,0-.927.057.448.448,0,0,0-.406.512Zm-.7,1.879a.956.956,0,0,0-.087-.541,1,1,0,0,0-.551-.085,1.055,1.055,0,0,0,.058.342C495.15,322.991,495.343,323.085,495.653,323.085Zm-.638,6.835q.463,0,.232-.228T495.015,329.92Zm0,3.758h.638v-.626h-.638Zm.638,2.506a1.127,1.127,0,0,0-.348.057c-.194.077-.29.266-.29.57a1,1,0,0,0,.551-.085A.954.954,0,0,0,495.653,336.185Zm.7,6.834a4.536,4.536,0,0,0-.927.085.486.486,0,0,0-.406.541,4.664,4.664,0,0,0,.9-.085A.493.493,0,0,0,496.348,343.019Zm-.7,5.012a4.018,4.018,0,0,0-.087-.854.493.493,0,0,0-.551-.4,3.971,3.971,0,0,0,.087.854A.491.491,0,0,0,495.653,348.031Zm-.087,3.531a.493.493,0,0,0-.551-.4,1.63,1.63,0,0,0,.058.4,1.683,1.683,0,0,0,.58.854A4.018,4.018,0,0,0,495.566,351.562Zm.087-7.233q-.232-.227-.348-.085a.483.483,0,0,0-.116.313c0,.114.038.18.116.2S495.5,344.633,495.653,344.329Zm0-23.749h.7v-.627h-.7Zm.7,4.385a4.019,4.019,0,0,0-.087-.854c-.058-.265-.261-.4-.609-.4a3.978,3.978,0,0,0,.087.854Q495.827,324.965,496.348,324.965Zm-.7,3.759h.7V328.1h-.7Zm0,11.22h.7a.562.562,0,0,1-.232-.57c.038-.228.077-.436.116-.626a.8.8,0,0,0-.028-.484q-.087-.2-.551-.2.521.456.261.912A1.917,1.917,0,0,0,495.653,339.944Zm0,6.265q.231.457.377.427a.176.176,0,0,0,.145-.2.435.435,0,0,0-.145-.313Q495.884,345.982,495.653,346.208Zm0,3.133h.7a.96.96,0,0,0-.087-.542,1.177,1.177,0,0,0-.609-.085Zm.7,1.2q0-.455-.348-.456t-.347.456Zm0-5.581q0,.683.087.6a.823.823,0,0,0,.145-.4,1.647,1.647,0,0,0,.029-.512Q496.579,344.443,496.348,344.955Z" transform="translate(-329.949 -313.29)"/><path class="a" d="M561.553,313.578q0,4.442-.087,9.312t-.145,9.909q-.058,5.041-.029,10.167t.261,10.023a6.892,6.892,0,0,1-2.318.57,20.25,20.25,0,0,1-2.145,0l-2.145-.114a9.907,9.907,0,0,0-2.318.171V314.2q.7-.227,1.738-.456a19.2,19.2,0,0,1,2.231-.342,21.184,21.184,0,0,1,2.463-.086A15.548,15.548,0,0,1,561.553,313.578Zm-7.013,33.2a1.918,1.918,0,0,1,.174-.655c.116-.285.222-.55.319-.8a.887.887,0,0,0,.087-.541q-.058-.17-.58.057a3.325,3.325,0,0,0-.29,1.367A.694.694,0,0,0,554.54,346.781Zm.637-20.731v.626h-.637a.472.472,0,0,1,.174.456,1.658,1.658,0,0,1-.174.427c-.078.134-.136.238-.174.313s.019.114.174.114a.5.5,0,0,0,.551-.428,4.418,4.418,0,0,0,.087-.883v-.626a2.142,2.142,0,0,0,1.073.142,1.061,1.061,0,0,0,.609-.37,2.682,2.682,0,0,0,.406-.741,9.516,9.516,0,0,1,.406-.911,2.5,2.5,0,0,1-.551.74,2.945,2.945,0,0,1-.666.456c-.232.114-.464.219-.7.313A1.779,1.779,0,0,0,555.178,326.051Zm0,12.587a4.019,4.019,0,0,0-.087-.855.492.492,0,0,0-.551-.4,2.069,2.069,0,0,1-.087.541,2.085,2.085,0,0,0-.087.541.316.316,0,0,0,.174.313C554.656,338.836,554.868,338.789,555.178,338.637Zm-.637-14.466c.154.3.27.456.348.456s.116-.057.116-.17a.609.609,0,0,0-.116-.342C554.81,324,554.694,324.02,554.54,324.171Zm0,6.321h.637a2.919,2.919,0,0,0-.087-.769q-.087-.312-.551.142Zm0,3.7h.637v-1.253h-.637Zm.637,5.695h.7c.154-.151.174-.265.058-.341a.9.9,0,0,0-.492-.114,1.654,1.654,0,0,0-.609.114q-.29.115-.29.341Zm.7,2.449v1.88a.733.733,0,0,0,.58-.2,1.035,1.035,0,0,0,.232-.428c.038-.151.077-.294.116-.427a.233.233,0,0,1,.232-.2.549.549,0,0,1-.551-.314.6.6,0,0,0-.609-.313.96.96,0,0,0,.29-.057.524.524,0,0,0,.347-.569,3.023,3.023,0,0,1-.782.256,1.214,1.214,0,0,1-.464-.028,1.4,1.4,0,0,1-.348-.143.739.739,0,0,0-.377-.085.731.731,0,0,0,.232.626q.231.171-.232.627a1.247,1.247,0,0,0,.7.171.345.345,0,0,0,.232-.228,2.146,2.146,0,0,0,.087-.37C555.574,342.406,555.68,342.339,555.873,342.339Zm-.7,8.145a.9.9,0,0,0,.29.712,1.26,1.26,0,0,0,.637.313,1.179,1.179,0,0,0,.638-.057q.289-.113.29-.341a.616.616,0,0,1-.319-.085,2.582,2.582,0,0,1-.318-.228,1.35,1.35,0,0,0-.435-.228,2.684,2.684,0,0,0-.782-.085q0-.227-.174-.171a.734.734,0,0,0-.29.171c-.078.076-.1.134-.058.171S554.868,350.636,555.178,350.483Zm.7-28.761a.956.956,0,0,0,.145-1.168q-.319-.711-.841-.712a1.979,1.979,0,0,0,.116.741,2.42,2.42,0,0,0,.232.456c.077.114.154.219.232.313A.57.57,0,0,1,555.873,321.722Zm0,6.891a1.168,1.168,0,0,0-.609.086.953.953,0,0,0-.087.541,1.1,1.1,0,0,0,.348-.057A.525.525,0,0,0,555.873,328.613Zm-.7,17.541h.7v-1.31h-.7Zm1.333.626q-.465-.4-.58.057a2.347,2.347,0,0,0-.058.57h-.7v1.253q.522,0,.609-.4a4.009,4.009,0,0,0,.087-.854q.463.457.551.143a2.92,2.92,0,0,0,.087-.769.566.566,0,0,0,.377-.2,1.655,1.655,0,0,0,.319-.427.717.717,0,0,0,.087-.427c-.02-.133-.107-.2-.261-.2a1.5,1.5,0,0,0-.29.4A1.894,1.894,0,0,0,556.511,346.781Zm-.637-30.128a.614.614,0,0,0,.435.285,1.192,1.192,0,0,0,.377-.057.563.563,0,0,0,.348-.228.741.741,0,0,0-.754-.227A.863.863,0,0,0,555.873,316.653Zm0,7.518h1.159a.914.914,0,0,0-.348-.741q-.348-.284-.811.171Zm.637,3.816V327.3h-.637a1.12,1.12,0,0,0,.087.6A1,1,0,0,0,556.511,327.987Zm-.637,3.132h.637v-.626h-.637Zm0,3.076q.231.457.348.342a.561.561,0,0,0,0-.683Q556.1,333.74,555.873,334.195Zm.637,5.069q0-.684-.173-.769a.245.245,0,0,0-.319.085.464.464,0,0,0-.087.427c.038.171.232.257.58.257a2.6,2.6,0,0,1-.087.74c-.058.19-.107.342-.145.456a.588.588,0,0,0-.029.313.842.842,0,0,0,.261.37h-.637v.57q.463,0,.58-.285a.632.632,0,0,0,.058-.285,1.014,1.014,0,0,0,.2-.37.865.865,0,0,0,0-.313A3.959,3.959,0,0,0,556.6,340a2.6,2.6,0,0,1-.087-.74.551.551,0,0,1,.551.313.6.6,0,0,0,.609.312,2.452,2.452,0,0,1,.174-1.167,3.363,3.363,0,0,1,1.159-.712,1.861,1.861,0,0,1-1.014-.313,1.789,1.789,0,0,0-.956-.313,1.012,1.012,0,0,0-.2.37.827.827,0,0,0,0,.313,3.777,3.777,0,0,0,.116.456,2.608,2.608,0,0,1,.087.741Zm0-23.237c.116,0,.183-.028.2-.086a.184.184,0,0,0,0-.143c-.02-.037-.058-.047-.116-.028S556.511,315.876,556.511,316.027Zm.464,3.787a1.053,1.053,0,0,0-.029-.541.858.858,0,0,0-.261-.427c-.116-.094-.174.028-.174.37v.626C556.781,319.995,556.936,319.985,556.975,319.814Zm-.464,3.161a3.545,3.545,0,0,0,.782-.085.481.481,0,0,0,.377-.541h-.637a.66.66,0,0,0-.29.057Q556.511,322.521,556.511,322.975Zm0,6.891h.522v-.626h-.522Zm0,6.892a.337.337,0,0,0,.29-.2.955.955,0,0,0,0-.911.339.339,0,0,0-.29-.2Zm0,4.955a1.106,1.106,0,0,0,.782.456c.251,0,.377-.152.377-.456s-.194-.456-.58-.456S556.511,341.409,556.511,341.713Zm.522-14.409a1.478,1.478,0,0,0,.869-.285,3.735,3.735,0,0,0,.406-.341,4.183,4.183,0,0,0-.869.086A.486.486,0,0,0,557.033,327.3Zm0,8.144h.637q0-.455-.087-.541a1,1,0,0,0-.55-.085Zm.637,5.383a.664.664,0,0,0,.637.312v-.626a.225.225,0,0,0-.2-.257,1.171,1.171,0,0,0-.435.029,2.585,2.585,0,0,0-.637.228A.665.665,0,0,1,557.67,340.83Zm.232,4.613q.405-.085.406-.6a.267.267,0,0,1-.29-.2c-.039-.132-.078-.256-.116-.37a.346.346,0,0,0-.232-.228,1.046,1.046,0,0,0-.637.171v1.31A4.225,4.225,0,0,0,557.9,345.443Zm-.232,1.965h-.637c.309,0,.492.077.55.228S557.67,347.712,557.67,347.408Zm0-23.806q0,.457.087.342a.964.964,0,0,0,.145-.342.767.767,0,0,0,.029-.341Q557.9,323.147,557.67,323.6Zm.637,2.363a4.466,4.466,0,0,0,.7-.541,4.5,4.5,0,0,0-.927.086.486.486,0,0,0-.406.541A1.61,1.61,0,0,0,558.307,325.965Zm-.637,4.528h.637v-.626h-.637Zm0,2.449h.637v-.569h-.637Zm0,4.443h.637a.957.957,0,0,0-.087-.541,1,1,0,0,0-.551-.085Zm0,9.4q.522.228.754.085a.459.459,0,0,0,0-.8q-.232-.141-.754.086Zm1.971,2.506a2.5,2.5,0,0,1-.58-.086c-.232-.057-.445-.1-.637-.142a1.687,1.687,0,0,0-.522-.028.234.234,0,0,0-.232.256.915.915,0,0,1,.7.2,2.668,2.668,0,0,1,.29.4,2.53,2.53,0,0,0,.29.4.915.915,0,0,0,.7.2ZM559,351.736q0-.968-.435-1.111a2.891,2.891,0,0,0-.9-.142.624.624,0,0,0,.406.626A3.655,3.655,0,0,1,559,351.736Zm-.7-29.387a4.542,4.542,0,0,0,.927-.085.486.486,0,0,0,.406-.541h-1.333Zm0,9.4c.154.152.28.181.377.086a.433.433,0,0,0,.145-.313.176.176,0,0,0-.145-.2C558.588,331.3,558.462,331.442,558.307,331.746Zm0,4.329a1.711,1.711,0,0,0,.406-.057,2.054,2.054,0,0,0,.927-.57,1,1,0,0,1-.551-.085c-.058-.057-.087-.237-.087-.541a.962.962,0,0,0,.29-.057.525.525,0,0,0,.348-.57h-1.333a.716.716,0,0,1,.261.94A1.978,1.978,0,0,0,558.307,336.075Zm0,3.189v.626c.154.153.28.181.377.086a.621.621,0,0,0,0-.8C558.588,339.084,558.462,339.112,558.307,339.264Zm.7,3.7v-.627h-.7c0,.3.029.484.087.541A1.167,1.167,0,0,0,559,342.966Zm.435,2.221c.019-.3.029-.57.029-.8a.827.827,0,0,0-.2-.57,1.353,1.353,0,0,0-.956-.228,3.059,3.059,0,0,0,.435,1.282,5.133,5.133,0,0,0,.9,1.281A2.02,2.02,0,0,1,559.438,345.187Zm-1.13,3.474h1.333a1.192,1.192,0,0,0-.406-.854,1.29,1.29,0,0,0-.927-.4Zm.7-10.65c.309,0,.464-.208.464-.626s-.156-.626-.464-.626q-.291.228-.232.37a.626.626,0,0,0,.2.256.639.639,0,0,1,.2.256Q559.234,337.783,559,338.011Zm.637-20.731a4.015,4.015,0,0,0-.087-.854.493.493,0,0,0-.551-.4,1.7,1.7,0,0,0-.174.626.678.678,0,0,0,.145.456Q559.119,317.28,559.641,317.28ZM559,332.942c.154.3.27.456.347.456s.117-.057.117-.171a.606.606,0,0,0-.117-.341C559.273,332.771,559.157,332.79,559,332.942Zm0,8.771h.637v-.57H559Z" transform="translate(-375.1 -312.667)"/><path class="a" d="M618.177,314.528q0,1.879-.087,4.072a17.04,17.04,0,0,1-.609,4.015q-2.377,0-5.129-.171t-5.535-.2q-2.782-.028-5.449.171a21.04,21.04,0,0,0-4.81.883,4.768,4.768,0,0,0-.232,1.537,14.58,14.58,0,0,0,.116,1.794q.115.94.318,1.851a9.149,9.149,0,0,0,.493,1.594,17.9,17.9,0,0,0,4.2.57q2.289.058,4.724,0l4.84-.114a35.409,35.409,0,0,1,4.55.171,4.565,4.565,0,0,1,.174,1.651,16.608,16.608,0,0,1-.232,1.88q-.173.969-.347,1.993a11.59,11.59,0,0,0-.174,1.936,20.958,20.958,0,0,1-4.318.143q-2.406-.141-4.839-.256t-4.7,0a11.484,11.484,0,0,0-3.883.8,2.051,2.051,0,0,0-.9,1.224,5.935,5.935,0,0,0-.174,1.708,13.721,13.721,0,0,0,.2,1.937,11.092,11.092,0,0,1,.174,1.907,24.752,24.752,0,0,0,4.984.883q2.609.2,5.333.171t5.564-.2q2.839-.17,5.738-.171a3.146,3.146,0,0,1,.522,1.595,10.716,10.716,0,0,1-.058,1.908q-.117,1-.29,1.994a11.086,11.086,0,0,0-.174,1.907q-3.594.286-7.361.313t-7.651.028q-3.884,0-7.766.057t-7.651.285v-39.24h7.738q3.97,0,7.911-.057t7.68-.2Q614.815,314.756,618.177,314.528ZM589.545,341.3h.7v-.57h-.7Zm.7-16.231q.231.285.377.142a.434.434,0,0,0,.145-.313.223.223,0,0,0-.145-.228C590.52,324.628,590.394,324.76,590.24,325.064Zm.7,1.31v.569h1.218v.683h.58a1.633,1.633,0,0,0-.058-.6q-.058-.086-.522-.086c.154-.3.2-.5.145-.6a.343.343,0,0,0-.318-.143,1.866,1.866,0,0,0-.522.085,1.862,1.862,0,0,1-.522.086v-.626h-.7q0,.456.087.541A1.166,1.166,0,0,0,590.936,326.374Zm-.7,9.909h.7v-.569h-.7Zm0,13.783a8.108,8.108,0,0,0,1.13-.086q.608-.085.145-.6H590.24Zm0,1.2h.7v-.626h-.7Zm.7-7.4c-.193-.151-.328-.19-.406-.114a.38.38,0,0,0-.116.284.228.228,0,0,0,.116.228Q590.646,344.314,590.936,343.858Zm1.218,4.955v.57q.464.286.7.114a.491.491,0,0,0,.232-.4.426.426,0,0,0-.232-.37q-.232-.141-.7.086v-.626a2.175,2.175,0,0,1-.551-.085,2.167,2.167,0,0,0-.551-.086.343.343,0,0,0-.318.143q-.088.143.2.655Zm-1.218-11.847a1.492,1.492,0,0,1,.174.883,7.012,7.012,0,0,1-.144.769.947.947,0,0,0,0,.569c.058.153.241.228.55.228a.905.905,0,0,1,.029-.911q.261-.455.492-.854a1.275,1.275,0,0,0,.2-.741c-.02-.227-.261-.436-.725-.626a1.636,1.636,0,0,1-.058.6Q591.4,336.967,590.936,336.967Zm0-16.8h.58v-.684h-.58Zm0,2.449v1.879q.464-.455.841-.313t.377-.313a1.428,1.428,0,0,1-.551-.057c-.058-.037-.087-.208-.087-.512,0-.152.029-.247.087-.285a.422.422,0,0,1,.232-.057.753.753,0,0,0,.232-.028q.088-.028.087-.313Zm0,5.581h.58v-.57h-.58Zm0,6.892h.58v-.57h-.58Zm0,6.834h.58a1.39,1.39,0,0,0-.058-.541q-.058-.085-.522-.085Zm2.492,1.253h-.7v1.253a4.656,4.656,0,0,0-.9.085,1.842,1.842,0,0,0-.9.541q.927-.455,1.073-.086a4.189,4.189,0,0,1,.145,1.338c.309.152.511.171.609.057a.782.782,0,0,0,.145-.512,3.9,3.9,0,0,0-.087-.769,3.567,3.567,0,0,1-.087-.655,1.247,1.247,0,0,0,.7.171.263.263,0,0,0,.174-.285,2.078,2.078,0,0,0-.087-.541,2.235,2.235,0,0,1-.087-.6.492.492,0,0,0,.551-.4,3.979,3.979,0,0,0,.087-.855h-1.912c-.155.3-.145.484.029.542a1.963,1.963,0,0,0,.609.085,1.963,1.963,0,0,1,.609.085C593.573,342.69,593.582,342.871,593.428,343.175Zm-2.492,3.132h.58v-.683h-.58Zm0,1.2h.522a2.178,2.178,0,0,0,.522-.057.551.551,0,0,0,.318-.17c.058-.076.009-.19-.145-.342h-1.218Zm2.492,3.759q-.521.512-.985.256a1.9,1.9,0,0,0-.927-.256c-.155.19-.136.322.058.4a1.9,1.9,0,0,0,.7.114,2.681,2.681,0,0,0,.782-.114C593.3,351.585,593.428,351.453,593.428,351.262Zm-.985-21.813q0-.626-.927-.627v1.253Q592.442,330.076,592.443,329.45Zm.29,3.189v.513h.7q0-.4-.087-.456a1.714,1.714,0,0,0-.608-.057v-.683a3.817,3.817,0,0,0-.841.085q-.377.086-.377.6Zm-1.218,8.087h.638v-.683h-.638Zm.638,9.91h.58v-.57h-.58Zm.58-32.349a4.537,4.537,0,0,0,.927-.085q.405-.085.406-.6h-1.333Zm0,1.2h.7v-.626h-.7Zm0,6.892h.7v-.626h-.7Zm0,11.22a.444.444,0,0,0,.376-.2.788.788,0,0,0,0-.911.446.446,0,0,0-.376-.2Zm.376,2.563a.621.621,0,0,0,0-.8c-.1-.114-.222-.094-.376.057v.627C592.887,340.233,593.012,340.27,593.109,340.156Zm-.376,1.139h.7v-.57h-.7Zm0,6.891h.7V347.5h-.7Zm1.246-24.376c.058-.037.087-.208.087-.512a1.126,1.126,0,0,0-.347.057.489.489,0,0,0-.29.513A1.431,1.431,0,0,0,593.979,323.811Zm-.551,1.253c.154.19.27.227.348.114a.7.7,0,0,0,.116-.4.572.572,0,0,0-.116-.37q-.117-.141-.348.085Zm1.217,5.638v.6a2.25,2.25,0,0,1-.058.541.544.544,0,0,1-.174.313c-.078.057-.194-.009-.348-.2v-.57q-.232-.227-.347-.086a.569.569,0,0,0-.116.37.689.689,0,0,0,.116.4c.077.114.193.077.347-.114a.988.988,0,0,0-.173.626.267.267,0,0,0,.29.171,3.162,3.162,0,0,0,.551-.057,3.506,3.506,0,0,1,.609-.057,5.182,5.182,0,0,0-.087-.968,1.954,1.954,0,0,0-.609-.968v-.627a3.782,3.782,0,0,0-.84.086.481.481,0,0,0-.377.541Zm-1.217,4.385a5.609,5.609,0,0,0,.841-.057q.376-.056.376-.512h-1.217Zm0,3.759q.231.228.348.057a.743.743,0,0,0,0-.8c-.078-.114-.194-.094-.348.057Zm.348,7.717a2.667,2.667,0,0,0,.116-.8,1.687,1.687,0,0,0-.116-.683c-.078-.171-.194-.18-.348-.028v1.879Q593.659,346.934,593.776,346.563Zm.869-19.62a5.474,5.474,0,0,0-.058-.825q-.058-.37-.522-.37a1.26,1.26,0,0,1-.087.456,1.144,1.144,0,0,0-.087.4.278.278,0,0,0,.145.257A1.39,1.39,0,0,0,594.645,326.943Zm0,1.879a2.407,2.407,0,0,0-.29.114.608.608,0,0,0-.29.57.293.293,0,0,0,.29-.057Q594.645,329.335,594.645,328.823Zm-.58,5.012h.58v-.683h-.58Zm0,2.449h.58v-.569h-.58Zm.58,1.31v-.627h-.58v.627Zm-.58,3.132c.154.3.261.437.319.4a.253.253,0,0,0,.087-.228.455.455,0,0,0-.087-.285C594.327,340.536,594.219,340.574,594.065,340.726Zm0,3.7c.154.3.261.418.319.342a.717.717,0,0,0,0-.684C594.327,344.01,594.219,344.124,594.065,344.428Zm0,4.385h.58v-.626h-.58Zm0,2.449c.154.19.261.228.319.114a.959.959,0,0,0,0-.8c-.058-.114-.165-.095-.319.057Zm.58-29.843h.7v-.684h-.7Zm0,28.647h.7v-.683h-.7Zm.7-29.9q.231.228.348.057a.858.858,0,0,0,.116-.484,1.574,1.574,0,0,0-.116-.6c-.078-.19-.194-.285-.348-.285Zm0,12.985a2.646,2.646,0,0,0,.087,1.025c.058.038.106-.047.145-.256a2.318,2.318,0,0,0,.029-.626C595.582,333.085,595.495,333.037,595.341,333.151Zm.637,18.111-.347.114a.607.607,0,0,0-.29.57,1,1,0,0,0,.551-.085A1.121,1.121,0,0,0,595.978,351.262Zm0-14.979c-.347,0-.542.057-.579.171a.283.283,0,0,0,.087.314.3.3,0,0,0,.319.085C595.92,336.816,595.978,336.625,595.978,336.283Zm0-15.548h1.275a.448.448,0,0,0-.406-.512,6.362,6.362,0,0,0-.87-.057Zm0,11.9c.154.114.261.124.319.028a.589.589,0,0,0,.087-.313q0-.17-.087-.17T595.978,332.639Zm1.854-13.156v.684h.638a.447.447,0,0,0-.116-.37,2.069,2.069,0,0,1-.232-.2,2.124,2.124,0,0,1-.29-.114v-.626a1.448,1.448,0,0,0-1.043-.057c-.232.114-.347.248-.347.4s.116.285.347.4A1.334,1.334,0,0,0,597.833,319.482Zm-1.275,13.669h1.275a.408.408,0,0,0-.376-.456,6.205,6.205,0,0,0-.9-.057Zm.7,16.231v-.57h-.7v.57Zm-.7,2.563q.231.456.377.313a.5.5,0,0,0,.145-.37.411.411,0,0,0-.145-.342Q596.789,351.433,596.558,351.945Zm.7-1.31c.154.341.261.475.319.4a.832.832,0,0,0,0-.74Q597.485,350.18,597.254,350.636Zm1.913-2.449q-.522.456-.7.228a.764.764,0,0,0-.638-.228q-.232.228-.058.341a.89.89,0,0,0,.493.114,1.637,1.637,0,0,0,.609-.114C599.069,348.453,599.166,348.339,599.166,348.187Zm-1.334,1.879h.638a1.121,1.121,0,0,0-.087-.6,1.006,1.006,0,0,0-.551-.085Zm.638-32.463h.7v-.569h-.7Zm0,18.68h.7v-.569h-.7Zm2.492,12.53h-.521v1.253a1.487,1.487,0,0,1-.522-.086,1.2,1.2,0,0,0-.406-.085.286.286,0,0,0-.261.143,1.326,1.326,0,0,0-.087.6c-.194-.152-.329-.2-.406-.143a.682.682,0,0,0-.2.314,1.611,1.611,0,0,0-.087.569v.57a1.651,1.651,0,0,1,.84-.2,4.978,4.978,0,0,1,.637.086.474.474,0,0,0,.377-.028c.077-.057.116-.237.116-.541q0-.227-.116-.171a1.65,1.65,0,0,0-.29.2,1,1,0,0,1-.406.2c-.155.038-.31-.037-.464-.228v-.626h.521a2.2,2.2,0,0,0,.522-.057.554.554,0,0,0,.319-.171q.087-.114-.087-.342a.419.419,0,0,0,.463-.4,5.957,5.957,0,0,0,.058-.854q.522,0,.58-.171a.31.31,0,0,0-.058-.313.282.282,0,0,0-.318-.086C601.03,348.282,600.963,348.471,600.963,348.813Zm.7-29.957V317.6h-1.912q0,.513.7.683A3.273,3.273,0,0,1,601.658,318.856Zm-1.912.626h.7v-.626h-.7Zm1.217,16.232v.569a1.443,1.443,0,0,0,.783-.171q.261-.17.261-.341t-.261-.228a1.426,1.426,0,0,0-.783.171v-.626a.963.963,0,0,0-.7-.143c-.154.057-.232.143-.232.256a.458.458,0,0,0,.232.342A1.164,1.164,0,0,0,600.963,335.714Zm.7,14.352h.7v-.683h-.7Zm.7,1.2v.683a3.82,3.82,0,0,0,.84-.085q.376-.085.377-.6h-1.217v-.626h-.7q0,.456.087.541A1.173,1.173,0,0,0,602.354,351.262Zm0-32.406h.58a1.156,1.156,0,0,0-.058-.512,1.2,1.2,0,0,0-.522-.057Zm0,1.31h.58v-.684h-.58Zm.58,28.647q0,.457.29.513a.637.637,0,0,0,.522-.114.648.648,0,0,0,.261-.484q.028-.312-.435-.541c0,.3-.029.484-.087.541a1,1,0,0,1-.55.086c0-.342-.058-.531-.174-.57a.247.247,0,0,0-.29.086.307.307,0,0,0-.058.313Q602.469,348.813,602.934,348.813Zm.637-31.21c0-.3-.029-.474-.087-.512a1.454,1.454,0,0,0-.55-.057.62.62,0,0,0,.058.285C603.069,317.509,603.262,317.6,603.571,317.6Zm-.637,32.463q.231.457.348.342a.563.563,0,0,0,0-.684Q603.164,349.611,602.934,350.066Zm.637-31.21c.154.342.261.5.319.484s.087-.085.087-.2a.75.75,0,0,0-.087-.342C603.832,318.685,603.725,318.7,603.571,318.856Zm0,14.978c.154.3.261.447.319.428s.087-.086.087-.2a.592.592,0,0,0-.087-.313C603.832,333.655,603.725,333.683,603.571,333.834Zm.58-16.231c.154.3.28.456.377.456s.145-.057.145-.171a.535.535,0,0,0-.145-.342C604.431,317.432,604.3,317.452,604.151,317.6Zm1.913,0h-.58v1.253a.492.492,0,0,0-.551.4,4.311,4.311,0,0,0-.087.911h.638v-1.31h.58V317.6h.7v-.569q-.521-.456-.609-.171A2.611,2.611,0,0,0,606.063,317.6Zm-.58,18.111c.153.3.261.418.318.341a.557.557,0,0,0,.087-.341.563.563,0,0,0-.087-.342C605.745,335.3,605.637,335.411,605.484,335.714Zm.58,0h1.275a1.139,1.139,0,0,0-.377-.826,1.239,1.239,0,0,0-.9-.37Zm.7,12.472c0,.152-.039.247-.116.285a.519.519,0,0,1-.232.057.968.968,0,0,0-.232.029c-.078.019-.116.1-.116.256a1.171,1.171,0,0,0,.608-.086Q606.759,348.642,606.759,348.187Zm-.7,2.449h.7v-.57h-.7Zm.7-31.78h.58v-.57h-.58Zm.58,32.406a2.411,2.411,0,0,0-.29.114.608.608,0,0,0-.29.57.291.291,0,0,0,.29-.057Q607.338,351.775,607.338,351.262Zm0-16.744h.637v-.684h-.637Zm0,14.865h.637v-.57h-.637Zm.637,1.879a4.123,4.123,0,0,0,.9-.086.481.481,0,0,0,.377-.541h-1.275Zm.7-14.979h.58v-.569h-.58Zm0,13.783h.58v-.683h-.58Zm.58-31.21a5.605,5.605,0,0,0,.84-.057c.251-.037.377-.208.377-.513h-1.217Zm0,14.978h.637v-.683h-.637Zm.637,14.352c0,.152-.029.247-.087.285a.414.414,0,0,1-.232.057.765.765,0,0,0-.232.029q-.087.029-.087.256a.949.949,0,0,0,.29-.057A.524.524,0,0,0,609.889,348.187Zm0-30.584h.58v-.569h-.58Zm0,33.033h.58a1.146,1.146,0,0,0-.058-.513,1.2,1.2,0,0,0-.522-.057Zm.58-31.153h.7v-.626h-.7Zm0,16.232h1.391a.493.493,0,0,0-.435-.541,4.978,4.978,0,0,0-.956-.085Zm.7-18.111q0,.684.087.626a.713.713,0,0,0,.174-.37.968.968,0,0,0,.029-.513Q611.4,317.148,611.163,317.6Zm0,31.21q.232.457.377.427a.176.176,0,0,0,.145-.2.437.437,0,0,0-.145-.314Q611.395,348.586,611.163,348.813Zm1.275-29.957h-.58c-.194.152-.232.266-.116.342a.718.718,0,0,0,.406.114.588.588,0,0,0,.377-.114q.144-.114-.087-.342h.638a4.026,4.026,0,0,0-.087-.854.493.493,0,0,0-.551-.4Zm0,14.978h1.333a.614.614,0,0,0-.435-.654,2.693,2.693,0,0,1-.9-.541Zm.638-14.352c.154.3.28.419.376.342a.475.475,0,0,0,0-.683C613.356,319.065,613.23,319.179,613.077,319.482Zm0,15.036c.154.3.28.409.376.313a.5.5,0,0,0,.145-.37.411.411,0,0,0-.145-.342C613.356,334.044,613.23,334.176,613.077,334.518Zm.7-15.662h.58a1.134,1.134,0,0,0-.058-.512,1.2,1.2,0,0,0-.521-.057Zm1.217-1.253v.683h1.275c0-.341-.136-.541-.406-.6a4.2,4.2,0,0,0-.87-.086v-.569h-.637q0,.456.087.512A1.43,1.43,0,0,0,614.989,317.6Zm-.637,3.132h.637v-.569h-.637Zm.637-1.253h.58v-.626h-.58Zm.29,31.893a.609.609,0,0,0-.29.57.291.291,0,0,0,.29-.057c.193-.076.29-.285.29-.626A2.418,2.418,0,0,0,615.279,351.376Zm.986-.74c.154.341.27.475.348.4a.65.65,0,0,0,0-.74Q616.495,350.18,616.264,350.636Z" transform="translate(-392.717 -313.275)"/></g><g transform="translate(899.538 58.467)"><path class="b" d="M289.8,248.461c.817-.817,1.23-1.219,2.066-2.005,2.494,1.776,3.725,2.683,6.153,4.532.365.268.547.4.91.672q.72.563,1.272,1.065c.409.37.613.556,1.02.927a1.535,1.535,0,0,1,.145.124c.067.062.153.139.259.232l-.3-.432q-.8-1.121-1.44-2.1t-1.122-1.846c-1.412-2.485-2.1-3.741-3.435-6.279.688-.587,1.035-.876,1.733-1.444,2.166,1.742,3.234,2.628,5.338,4.431q1.167,1,2.108,1.9t1.755,1.752q-.657-1.053-1.232-2.064t-1.1-2c-.2-.391-.3-.586-.5-.978-1.154-2.3-1.717-3.457-2.815-5.79.894-.658,1.345-.98,2.254-1.609,2.071,5.122,4.272,10.152,6.631,15.149-.6.452-.9.681-1.488,1.149-2.129-1.877-3.21-2.8-5.405-4.613-.024-.016-.114-.092-.268-.227s-.378-.326-.67-.575c-.493-.429-.74-.643-1.236-1.07-.093-.086-.235-.213-.426-.381s-.426-.385-.705-.652l-.48-.472c.089.135.165.254.227.356s.114.186.156.251q.391.573.6.9t.254.4c.313.546.47.819.787,1.363.183.311.327.555.432.732a3.483,3.483,0,0,1,.185.337c1.366,2.5,2.067,3.744,3.509,6.2-.589.517-.881.78-1.46,1.315C299.02,254.476,294.469,251.411,289.8,248.461Z" transform="translate(-289.797 -220.972)"/><path class="b" d="M338.329,221.175c2.693-1.357,4.063-1.978,6.835-3.1.278.683.417,1.025.695,1.707-1.7.689-2.537,1.056-4.2,1.833l2.164,4.641c1.4-.651,2.1-.96,3.518-1.545l.7,1.7c-1.388.574-2.077.876-3.443,1.513l2.332,5c1.441-.672,2.168-.988,3.635-1.584l.695,1.707c-2.3.933-3.429,1.447-5.66,2.57Z" transform="translate(-314.142 -211.201)"/><path class="b" d="M412.294,204.387c.947-.052,1.421-.072,2.37-.1.8,2.615,1.179,3.928,1.88,6.559q.322,1.232.573,2.471t.449,2.6c.015-.119.028-.211.036-.277a.974.974,0,0,1,.023-.142c.138-.741.208-1.111.351-1.851.129-.7.195-1.054.329-1.756.118-.463.177-.7.3-1.159.635-2.584.974-3.873,1.7-6.445.959.029,1.438.049,2.4.1q.449,8.12.662,16.242c-.876-.066-1.315-.093-2.192-.135-.05-2.2-.08-3.3-.152-5.5,0-.28-.008-.521-.011-.724s0-.37,0-.5c-.006-.868-.01-1.3-.019-2.169.008-.8.012-1.194.018-1.99,0-.014,0-.044,0-.089s-.006-.107-.011-.184c-.03.129-.046.193-.076.322-.083.381-.156.714-.219,1s-.121.523-.169.717c-.149.586-.222.879-.366,1.465-.056.22-.083.33-.138.551-.711,2.8-1.041,4.207-1.648,7.023-.618-.007-.927-.008-1.545,0-.558-2.433-.858-3.647-1.5-6.069q-.327-1.2-.607-2.428t-.529-2.585q-.179,5.577-.254,11.159c-.864.038-1.3.064-2.16.127Q411.931,212.494,412.294,204.387Z" transform="translate(-350.987 -204.287)"/><path class="b" d="M461.832,209.954c.842.213,1.262.324,2.1.556-.085,5.572-.351,11.089-.807,16.643-.872-.287-1.31-.424-2.189-.684.113-1.282.163-1.924.255-3.209-1.362-.391-2.045-.572-3.419-.9-.561,1.162-.837,1.744-1.378,2.913-.864-.2-1.3-.294-2.165-.469C456.6,219.751,459.121,214.831,461.832,209.954Zm-.515,11.589c.072-1.051.105-1.576.164-2.628.107-1.788.29-3.676.558-5.663q-.549,1.361-1.193,2.735t-1.4,2.911c-.381.76-.569,1.14-.941,1.9C459.63,221.076,460.195,221.225,461.317,221.543Z" transform="translate(-372.279 -207.13)"/><path class="b" d="M498.756,223.267c1.018.5,1.525.754,2.53,1.283l-3.647,6.932c2.744-2.1,4.169-3.1,7.12-5.008,1,.58,1.492.879,2.475,1.492-3.079,1.771-4.569,2.712-7.437,4.692a90.662,90.662,0,0,1-.881,9.175c-.905-.569-1.362-.846-2.281-1.381.535-3.546.737-5.343,1-8.97l-3.88,7.377c-.833-.438-1.252-.651-2.1-1.062Z" transform="translate(-391.058 -213.808)"/><path class="b" d="M534.382,248.738c2.384,2.019,3.546,3.086,5.795,5.335l-1.3,1.3c-1.376-1.376-2.078-2.042-3.506-3.33l-3.425,3.8c1.2,1.079,1.786,1.635,2.943,2.779l-1.3,1.311c-1.133-1.12-1.709-1.664-2.881-2.72l-3.692,4.1c1.235,1.113,1.842,1.69,3.031,2.879l-1.3,1.3c-1.862-1.862-2.824-2.746-4.8-4.418Z" transform="translate(-407.252 -226.585)"/><g transform="translate(1.359 110.132)"><path class="b" d="M303.953,425.267c.952.952,1.436,1.416,2.419,2.318,1.922,1.764,2.019,3.665.19,5.875a4.3,4.3,0,0,1-1.976,1.528,3.3,3.3,0,0,1-2.267-.362,4.648,4.648,0,0,1,.823,2.472,4.065,4.065,0,0,1-1.068,2.27c-1.884,2.292-4.175,2.388-6.73.036-1.145-1.055-1.71-1.6-2.821-2.707Zm-3.206,6.808a2.968,2.968,0,0,0,1.989,1.031,3.033,3.033,0,0,0,1.882-1.227c1.153-1.309,1.183-2.434.12-3.425l-.142-.132-.08-.075a.43.43,0,0,0-.1-.076Zm-4.922,5.23a3.776,3.776,0,0,0,2.211,1.247,2.6,2.6,0,0,0,1.884-1.114,2.912,2.912,0,0,0,.925-2.076,3.513,3.513,0,0,0-1.282-2.029Z" transform="translate(-292.524 -425.267)"/><path class="b" d="M339.025,449.051c.8.475,1.2.706,2.017,1.154l-5.519,10a4.458,4.458,0,0,0-.771,2.229c.055.467.449.9,1.172,1.28a1.943,1.943,0,0,0,1.66.285,3.685,3.685,0,0,0,1.283-1.689l5.209-10.52c.827.41,1.243.608,2.08.991l-4.892,10.671c-.733,1.6-1.547,2.556-2.433,2.806a5.464,5.464,0,0,1-3.9-.761c-1.689-.885-2.64-1.957-2.852-3.129-.151-.806.231-1.969,1.13-3.489Z" transform="translate(-312.349 -437.198)"/><path class="b" d="M378.209,464.742c1.176.332,1.766.486,2.952.771a4.272,4.272,0,0,1,2.577,1.438,4.449,4.449,0,0,1,.539,3.529A5.063,5.063,0,0,1,383.1,473.1a2.791,2.791,0,0,1-2.16.885c.692,3.371,1.1,5.057,2.058,8.418-1.116-.2-1.673-.3-2.783-.533-.844-3.409-1.2-5.116-1.781-8.526l-1.929,7.677c-1.087-.272-1.628-.417-2.708-.722Q376,472.518,378.209,464.742Zm.493,7.542a2.842,2.842,0,0,0,2.152-.092,2.666,2.666,0,0,0,1.01-1.8,5.906,5.906,0,0,0,.156-1.284,2.243,2.243,0,0,0-.184-.93,1.53,1.53,0,0,0-.537-.627,2.746,2.746,0,0,0-.9-.376l-.387-.1Z" transform="translate(-333.293 -445.068)"/><path class="b" d="M422.622,478.013c1.84-.029,2.759-.068,4.595-.2.018.251.026.376.044.626.221,3.14.021,5.29-.591,6.427-.622,1.153-1.9,1.808-3.814,1.841a4.443,4.443,0,0,1-4.172-1.907c-.78-1.273-1.081-3.406-.958-6.37.141-3.389.633-5.627,1.429-6.729a3.859,3.859,0,0,1,3.3-1.562,4.282,4.282,0,0,1,2.652.679,5.331,5.331,0,0,1,1.666,2.451c-.868.4-1.307.593-2.2.968a6.971,6.971,0,0,0-.376-1.059,2.468,2.468,0,0,0-.423-.661,1.771,1.771,0,0,0-2.917.886,19.471,19.471,0,0,0-.49,5.032,15.87,15.87,0,0,0,.452,4.976,2.107,2.107,0,0,0,3.713.319,6.865,6.865,0,0,0,.4-3.18c-.008-.175-.011-.264-.018-.439-.005-.13-.008-.195-.014-.324-.9.037-1.349.05-2.249.065Z" transform="translate(-355.314 -447.777)"/><path class="b" d="M458.295,465.371c2.4-.529,3.594-.842,5.955-1.564l.54,1.762c-1.508.461-2.267.673-3.792,1.057.5,1.986.754,2.978,1.256,4.964,1.44-.363,2.157-.561,3.584-.988l.53,1.765c-1.457.437-2.19.639-3.662,1.01l1.353,5.35c1.766-.445,2.645-.69,4.392-1.224.216.7.324,1.057.54,1.762-2.856.873-4.3,1.252-7.2,1.892Q460.042,473.263,458.295,465.371Z" transform="translate(-375.678 -444.599)"/><path class="b" d="M491.427,453.459c1.117-.532,1.672-.81,2.772-1.39a4.46,4.46,0,0,1,2.941-.654,4.391,4.391,0,0,1,2.766,2.274,4.954,4.954,0,0,1,.835,2.749,2.867,2.867,0,0,1-1.078,2.116c2.776,2.057,4.217,3.041,7.2,4.906-1,.61-1.5.906-2.508,1.481-2.92-1.982-4.329-3.022-7.041-5.188l3.622,7.04c-1.014.522-1.524.774-2.55,1.264Zm5.385,5.325a2.941,2.941,0,0,0,1.592-1.509,2.628,2.628,0,0,0-.422-2.028,5.807,5.807,0,0,0-.735-1.065,2.218,2.218,0,0,0-.76-.573,1.569,1.569,0,0,0-.83-.109,2.867,2.867,0,0,0-.941.32l-.361.187Z" transform="translate(-392.298 -438.354)"/><path class="b" d="M529.7,426.993l1.485,1.52a4.32,4.32,0,0,0-2,.923,2.354,2.354,0,0,0-.794,1.543,2.041,2.041,0,0,0,.541,1.576,2.3,2.3,0,0,0,1.308.787,6.181,6.181,0,0,0,1.148.1c.5.006,1.136-.014,1.9-.07a12.212,12.212,0,0,1,3.264.1,4.316,4.316,0,0,1,2.09,1.215,3.778,3.778,0,0,1,1.157,3.195,5.329,5.329,0,0,1-1.9,3.386,5.964,5.964,0,0,1-2.935,1.531l-1.382-1.656a5.525,5.525,0,0,0,2.674-1.187,2.641,2.641,0,0,0,.977-1.686,2.02,2.02,0,0,0-.611-1.629,2.69,2.69,0,0,0-1.446-.812,7.337,7.337,0,0,0-1.043-.085c-.418-.01-.913,0-1.482.033a21.02,21.02,0,0,1-2.232.031,6.413,6.413,0,0,1-1.459-.205,4.082,4.082,0,0,1-1.944-1.407,4.128,4.128,0,0,1-1.054-3.036,4.282,4.282,0,0,1,1.522-2.835A6.427,6.427,0,0,1,529.7,426.993Z" transform="translate(-409.617 -426.133)"/></g></g></g></svg>